<?xml version="1.0" encoding="UTF-8"?>
<!DOCTYPE svg PUBLIC "-//W3C//DTD SVG 1.1//EN" "http://www.w3.org/Graphics/SVG/1.1/DTD/svg11.dtd">
<svg width="160mm" height="90mm" viewBox="0 0 16000 9000" version="1.1" xmlns="http://www.w3.org/2000/svg" xmlns:xlink="http://www.w3.org/1999/xlink" stroke-width="28.222" stroke-linejoin="round" xml:space="preserve">
 <path fill="rgb(255,255,255)" stroke="none" d="M 8000,8999 L 0,8999 0,0 15999,0 15999,8999 8000,8999 Z"/>
 <path fill="none" stroke="rgb(179,179,179)" stroke-linejoin="round" d="M 7030,7816 L 1232,7816 1232,301 12827,301 12827,7816 7030,7816 Z"/>
 <path fill="none" stroke="rgb(179,179,179)" stroke-linejoin="round" d="M 12827,7815 L 1232,7815"/>
 <path fill="none" stroke="rgb(179,179,179)" stroke-linejoin="round" d="M 12827,6875 L 1232,6875"/>
 <path fill="none" stroke="rgb(179,179,179)" stroke-linejoin="round" d="M 12827,5936 L 1232,5936"/>
 <path fill="none" stroke="rgb(179,179,179)" stroke-linejoin="round" d="M 12827,4996 L 1232,4996"/>
 <path fill="none" stroke="rgb(179,179,179)" stroke-linejoin="round" d="M 12827,4058 L 1232,4058"/>
 <path fill="none" stroke="rgb(179,179,179)" stroke-linejoin="round" d="M 12827,3118 L 1232,3118"/>
 <path fill="none" stroke="rgb(179,179,179)" stroke-linejoin="round" d="M 12827,2179 L 1232,2179"/>
 <path fill="none" stroke="rgb(179,179,179)" stroke-linejoin="round" d="M 12827,1239 L 1232,1239"/>
 <path fill="none" stroke="rgb(179,179,179)" stroke-linejoin="round" d="M 12827,299 L 1232,299"/>
 <path fill="none" stroke="rgb(179,179,179)" stroke-linejoin="round" d="M 1232,7965 L 1232,7815"/>
 <path fill="none" stroke="rgb(179,179,179)" stroke-linejoin="round" d="M 1232,7965 L 1232,7815"/>
 <path fill="none" stroke="rgb(179,179,179)" stroke-linejoin="round" d="M 1290,7965 L 1290,7815"/>
 <path fill="none" stroke="rgb(179,179,179)" stroke-linejoin="round" d="M 1290,7965 L 1290,7815"/>
 <path fill="none" stroke="rgb(179,179,179)" stroke-linejoin="round" d="M 1348,7965 L 1348,7815"/>
 <path fill="none" stroke="rgb(179,179,179)" stroke-linejoin="round" d="M 1348,7965 L 1348,7815"/>
 <path fill="none" stroke="rgb(179,179,179)" stroke-linejoin="round" d="M 1406,7965 L 1406,7815"/>
 <path fill="none" stroke="rgb(179,179,179)" stroke-linejoin="round" d="M 1406,7965 L 1406,7815"/>
 <path fill="none" stroke="rgb(179,179,179)" stroke-linejoin="round" d="M 1465,7965 L 1465,7815"/>
 <path fill="none" stroke="rgb(179,179,179)" stroke-linejoin="round" d="M 1465,7965 L 1465,7815"/>
 <path fill="none" stroke="rgb(179,179,179)" stroke-linejoin="round" d="M 1523,7965 L 1523,7815"/>
 <path fill="none" stroke="rgb(179,179,179)" stroke-linejoin="round" d="M 1523,7965 L 1523,7815"/>
 <path fill="none" stroke="rgb(179,179,179)" stroke-linejoin="round" d="M 1581,7965 L 1581,7815"/>
 <path fill="none" stroke="rgb(179,179,179)" stroke-linejoin="round" d="M 1581,7965 L 1581,7815"/>
 <path fill="none" stroke="rgb(179,179,179)" stroke-linejoin="round" d="M 1639,7965 L 1639,7815"/>
 <path fill="none" stroke="rgb(179,179,179)" stroke-linejoin="round" d="M 1639,7965 L 1639,7815"/>
 <path fill="none" stroke="rgb(179,179,179)" stroke-linejoin="round" d="M 1698,7965 L 1698,7815"/>
 <path fill="none" stroke="rgb(179,179,179)" stroke-linejoin="round" d="M 1698,7965 L 1698,7815"/>
 <path fill="none" stroke="rgb(179,179,179)" stroke-linejoin="round" d="M 1756,7965 L 1756,7815"/>
 <path fill="none" stroke="rgb(179,179,179)" stroke-linejoin="round" d="M 1756,7965 L 1756,7815"/>
 <path fill="none" stroke="rgb(179,179,179)" stroke-linejoin="round" d="M 1814,7965 L 1814,7815"/>
 <path fill="none" stroke="rgb(179,179,179)" stroke-linejoin="round" d="M 1814,7965 L 1814,7815"/>
 <path fill="none" stroke="rgb(179,179,179)" stroke-linejoin="round" d="M 1872,7965 L 1872,7815"/>
 <path fill="none" stroke="rgb(179,179,179)" stroke-linejoin="round" d="M 1872,7965 L 1872,7815"/>
 <path fill="none" stroke="rgb(179,179,179)" stroke-linejoin="round" d="M 1931,7965 L 1931,7815"/>
 <path fill="none" stroke="rgb(179,179,179)" stroke-linejoin="round" d="M 1931,7965 L 1931,7815"/>
 <path fill="none" stroke="rgb(179,179,179)" stroke-linejoin="round" d="M 1989,7965 L 1989,7815"/>
 <path fill="none" stroke="rgb(179,179,179)" stroke-linejoin="round" d="M 1989,7965 L 1989,7815"/>
 <path fill="none" stroke="rgb(179,179,179)" stroke-linejoin="round" d="M 2047,7965 L 2047,7815"/>
 <path fill="none" stroke="rgb(179,179,179)" stroke-linejoin="round" d="M 2047,7965 L 2047,7815"/>
 <path fill="none" stroke="rgb(179,179,179)" stroke-linejoin="round" d="M 2106,7965 L 2106,7815"/>
 <path fill="none" stroke="rgb(179,179,179)" stroke-linejoin="round" d="M 2106,7965 L 2106,7815"/>
 <path fill="none" stroke="rgb(179,179,179)" stroke-linejoin="round" d="M 2164,7965 L 2164,7815"/>
 <path fill="none" stroke="rgb(179,179,179)" stroke-linejoin="round" d="M 2164,7965 L 2164,7815"/>
 <path fill="none" stroke="rgb(179,179,179)" stroke-linejoin="round" d="M 2222,7965 L 2222,7815"/>
 <path fill="none" stroke="rgb(179,179,179)" stroke-linejoin="round" d="M 2222,7965 L 2222,7815"/>
 <path fill="none" stroke="rgb(179,179,179)" stroke-linejoin="round" d="M 2280,7965 L 2280,7815"/>
 <path fill="none" stroke="rgb(179,179,179)" stroke-linejoin="round" d="M 2280,7965 L 2280,7815"/>
 <path fill="none" stroke="rgb(179,179,179)" stroke-linejoin="round" d="M 2339,7965 L 2339,7815"/>
 <path fill="none" stroke="rgb(179,179,179)" stroke-linejoin="round" d="M 2339,7965 L 2339,7815"/>
 <path fill="none" stroke="rgb(179,179,179)" stroke-linejoin="round" d="M 2397,7965 L 2397,7815"/>
 <path fill="none" stroke="rgb(179,179,179)" stroke-linejoin="round" d="M 2397,7965 L 2397,7815"/>
 <path fill="none" stroke="rgb(179,179,179)" stroke-linejoin="round" d="M 2455,7965 L 2455,7815"/>
 <path fill="none" stroke="rgb(179,179,179)" stroke-linejoin="round" d="M 2455,7965 L 2455,7815"/>
 <path fill="none" stroke="rgb(179,179,179)" stroke-linejoin="round" d="M 2513,7965 L 2513,7815"/>
 <path fill="none" stroke="rgb(179,179,179)" stroke-linejoin="round" d="M 2513,7965 L 2513,7815"/>
 <path fill="none" stroke="rgb(179,179,179)" stroke-linejoin="round" d="M 2572,7965 L 2572,7815"/>
 <path fill="none" stroke="rgb(179,179,179)" stroke-linejoin="round" d="M 2572,7965 L 2572,7815"/>
 <path fill="none" stroke="rgb(179,179,179)" stroke-linejoin="round" d="M 2630,7965 L 2630,7815"/>
 <path fill="none" stroke="rgb(179,179,179)" stroke-linejoin="round" d="M 2630,7965 L 2630,7815"/>
 <path fill="none" stroke="rgb(179,179,179)" stroke-linejoin="round" d="M 2688,7965 L 2688,7815"/>
 <path fill="none" stroke="rgb(179,179,179)" stroke-linejoin="round" d="M 2688,7965 L 2688,7815"/>
 <path fill="none" stroke="rgb(179,179,179)" stroke-linejoin="round" d="M 2747,7965 L 2747,7815"/>
 <path fill="none" stroke="rgb(179,179,179)" stroke-linejoin="round" d="M 2747,7965 L 2747,7815"/>
 <path fill="none" stroke="rgb(179,179,179)" stroke-linejoin="round" d="M 2805,7965 L 2805,7815"/>
 <path fill="none" stroke="rgb(179,179,179)" stroke-linejoin="round" d="M 2805,7965 L 2805,7815"/>
 <path fill="none" stroke="rgb(179,179,179)" stroke-linejoin="round" d="M 2863,7965 L 2863,7815"/>
 <path fill="none" stroke="rgb(179,179,179)" stroke-linejoin="round" d="M 2863,7965 L 2863,7815"/>
 <path fill="none" stroke="rgb(179,179,179)" stroke-linejoin="round" d="M 2921,7965 L 2921,7815"/>
 <path fill="none" stroke="rgb(179,179,179)" stroke-linejoin="round" d="M 2921,7965 L 2921,7815"/>
 <path fill="none" stroke="rgb(179,179,179)" stroke-linejoin="round" d="M 2980,7965 L 2980,7815"/>
 <path fill="none" stroke="rgb(179,179,179)" stroke-linejoin="round" d="M 2980,7965 L 2980,7815"/>
 <path fill="none" stroke="rgb(179,179,179)" stroke-linejoin="round" d="M 3038,7965 L 3038,7815"/>
 <path fill="none" stroke="rgb(179,179,179)" stroke-linejoin="round" d="M 3038,7965 L 3038,7815"/>
 <path fill="none" stroke="rgb(179,179,179)" stroke-linejoin="round" d="M 3096,7965 L 3096,7815"/>
 <path fill="none" stroke="rgb(179,179,179)" stroke-linejoin="round" d="M 3096,7965 L 3096,7815"/>
 <path fill="none" stroke="rgb(179,179,179)" stroke-linejoin="round" d="M 3154,7965 L 3154,7815"/>
 <path fill="none" stroke="rgb(179,179,179)" stroke-linejoin="round" d="M 3154,7965 L 3154,7815"/>
 <path fill="none" stroke="rgb(179,179,179)" stroke-linejoin="round" d="M 3213,7965 L 3213,7815"/>
 <path fill="none" stroke="rgb(179,179,179)" stroke-linejoin="round" d="M 3213,7965 L 3213,7815"/>
 <path fill="none" stroke="rgb(179,179,179)" stroke-linejoin="round" d="M 3271,7965 L 3271,7815"/>
 <path fill="none" stroke="rgb(179,179,179)" stroke-linejoin="round" d="M 3271,7965 L 3271,7815"/>
 <path fill="none" stroke="rgb(179,179,179)" stroke-linejoin="round" d="M 3329,7965 L 3329,7815"/>
 <path fill="none" stroke="rgb(179,179,179)" stroke-linejoin="round" d="M 3329,7965 L 3329,7815"/>
 <path fill="none" stroke="rgb(179,179,179)" stroke-linejoin="round" d="M 3388,7965 L 3388,7815"/>
 <path fill="none" stroke="rgb(179,179,179)" stroke-linejoin="round" d="M 3388,7965 L 3388,7815"/>
 <path fill="none" stroke="rgb(179,179,179)" stroke-linejoin="round" d="M 3446,7965 L 3446,7815"/>
 <path fill="none" stroke="rgb(179,179,179)" stroke-linejoin="round" d="M 3446,7965 L 3446,7815"/>
 <path fill="none" stroke="rgb(179,179,179)" stroke-linejoin="round" d="M 3504,7965 L 3504,7815"/>
 <path fill="none" stroke="rgb(179,179,179)" stroke-linejoin="round" d="M 3504,7965 L 3504,7815"/>
 <path fill="none" stroke="rgb(179,179,179)" stroke-linejoin="round" d="M 3562,7965 L 3562,7815"/>
 <path fill="none" stroke="rgb(179,179,179)" stroke-linejoin="round" d="M 3562,7965 L 3562,7815"/>
 <path fill="none" stroke="rgb(179,179,179)" stroke-linejoin="round" d="M 3621,7965 L 3621,7815"/>
 <path fill="none" stroke="rgb(179,179,179)" stroke-linejoin="round" d="M 3621,7965 L 3621,7815"/>
 <path fill="none" stroke="rgb(179,179,179)" stroke-linejoin="round" d="M 3679,7965 L 3679,7815"/>
 <path fill="none" stroke="rgb(179,179,179)" stroke-linejoin="round" d="M 3679,7965 L 3679,7815"/>
 <path fill="none" stroke="rgb(179,179,179)" stroke-linejoin="round" d="M 3737,7965 L 3737,7815"/>
 <path fill="none" stroke="rgb(179,179,179)" stroke-linejoin="round" d="M 3737,7965 L 3737,7815"/>
 <path fill="none" stroke="rgb(179,179,179)" stroke-linejoin="round" d="M 3795,7965 L 3795,7815"/>
 <path fill="none" stroke="rgb(179,179,179)" stroke-linejoin="round" d="M 3795,7965 L 3795,7815"/>
 <path fill="none" stroke="rgb(179,179,179)" stroke-linejoin="round" d="M 3854,7965 L 3854,7815"/>
 <path fill="none" stroke="rgb(179,179,179)" stroke-linejoin="round" d="M 3854,7965 L 3854,7815"/>
 <path fill="none" stroke="rgb(179,179,179)" stroke-linejoin="round" d="M 3912,7965 L 3912,7815"/>
 <path fill="none" stroke="rgb(179,179,179)" stroke-linejoin="round" d="M 3912,7965 L 3912,7815"/>
 <path fill="none" stroke="rgb(179,179,179)" stroke-linejoin="round" d="M 3970,7965 L 3970,7815"/>
 <path fill="none" stroke="rgb(179,179,179)" stroke-linejoin="round" d="M 3970,7965 L 3970,7815"/>
 <path fill="none" stroke="rgb(179,179,179)" stroke-linejoin="round" d="M 4029,7965 L 4029,7815"/>
 <path fill="none" stroke="rgb(179,179,179)" stroke-linejoin="round" d="M 4029,7965 L 4029,7815"/>
 <path fill="none" stroke="rgb(179,179,179)" stroke-linejoin="round" d="M 4087,7965 L 4087,7815"/>
 <path fill="none" stroke="rgb(179,179,179)" stroke-linejoin="round" d="M 4087,7965 L 4087,7815"/>
 <path fill="none" stroke="rgb(179,179,179)" stroke-linejoin="round" d="M 4145,7965 L 4145,7815"/>
 <path fill="none" stroke="rgb(179,179,179)" stroke-linejoin="round" d="M 4145,7965 L 4145,7815"/>
 <path fill="none" stroke="rgb(179,179,179)" stroke-linejoin="round" d="M 4203,7965 L 4203,7815"/>
 <path fill="none" stroke="rgb(179,179,179)" stroke-linejoin="round" d="M 4203,7965 L 4203,7815"/>
 <path fill="none" stroke="rgb(179,179,179)" stroke-linejoin="round" d="M 4262,7965 L 4262,7815"/>
 <path fill="none" stroke="rgb(179,179,179)" stroke-linejoin="round" d="M 4262,7965 L 4262,7815"/>
 <path fill="none" stroke="rgb(179,179,179)" stroke-linejoin="round" d="M 4320,7965 L 4320,7815"/>
 <path fill="none" stroke="rgb(179,179,179)" stroke-linejoin="round" d="M 4320,7965 L 4320,7815"/>
 <path fill="none" stroke="rgb(179,179,179)" stroke-linejoin="round" d="M 4378,7965 L 4378,7815"/>
 <path fill="none" stroke="rgb(179,179,179)" stroke-linejoin="round" d="M 4378,7965 L 4378,7815"/>
 <path fill="none" stroke="rgb(179,179,179)" stroke-linejoin="round" d="M 4436,7965 L 4436,7815"/>
 <path fill="none" stroke="rgb(179,179,179)" stroke-linejoin="round" d="M 4436,7965 L 4436,7815"/>
 <path fill="none" stroke="rgb(179,179,179)" stroke-linejoin="round" d="M 4495,7965 L 4495,7815"/>
 <path fill="none" stroke="rgb(179,179,179)" stroke-linejoin="round" d="M 4495,7965 L 4495,7815"/>
 <path fill="none" stroke="rgb(179,179,179)" stroke-linejoin="round" d="M 4553,7965 L 4553,7815"/>
 <path fill="none" stroke="rgb(179,179,179)" stroke-linejoin="round" d="M 4553,7965 L 4553,7815"/>
 <path fill="none" stroke="rgb(179,179,179)" stroke-linejoin="round" d="M 4611,7965 L 4611,7815"/>
 <path fill="none" stroke="rgb(179,179,179)" stroke-linejoin="round" d="M 4611,7965 L 4611,7815"/>
 <path fill="none" stroke="rgb(179,179,179)" stroke-linejoin="round" d="M 4670,7965 L 4670,7815"/>
 <path fill="none" stroke="rgb(179,179,179)" stroke-linejoin="round" d="M 4670,7965 L 4670,7815"/>
 <path fill="none" stroke="rgb(179,179,179)" stroke-linejoin="round" d="M 4728,7965 L 4728,7815"/>
 <path fill="none" stroke="rgb(179,179,179)" stroke-linejoin="round" d="M 4728,7965 L 4728,7815"/>
 <path fill="none" stroke="rgb(179,179,179)" stroke-linejoin="round" d="M 4786,7965 L 4786,7815"/>
 <path fill="none" stroke="rgb(179,179,179)" stroke-linejoin="round" d="M 4786,7965 L 4786,7815"/>
 <path fill="none" stroke="rgb(179,179,179)" stroke-linejoin="round" d="M 4844,7965 L 4844,7815"/>
 <path fill="none" stroke="rgb(179,179,179)" stroke-linejoin="round" d="M 4844,7965 L 4844,7815"/>
 <path fill="none" stroke="rgb(179,179,179)" stroke-linejoin="round" d="M 4903,7965 L 4903,7815"/>
 <path fill="none" stroke="rgb(179,179,179)" stroke-linejoin="round" d="M 4903,7965 L 4903,7815"/>
 <path fill="none" stroke="rgb(179,179,179)" stroke-linejoin="round" d="M 4961,7965 L 4961,7815"/>
 <path fill="none" stroke="rgb(179,179,179)" stroke-linejoin="round" d="M 4961,7965 L 4961,7815"/>
 <path fill="none" stroke="rgb(179,179,179)" stroke-linejoin="round" d="M 5019,7965 L 5019,7815"/>
 <path fill="none" stroke="rgb(179,179,179)" stroke-linejoin="round" d="M 5019,7965 L 5019,7815"/>
 <path fill="none" stroke="rgb(179,179,179)" stroke-linejoin="round" d="M 5077,7965 L 5077,7815"/>
 <path fill="none" stroke="rgb(179,179,179)" stroke-linejoin="round" d="M 5077,7965 L 5077,7815"/>
 <path fill="none" stroke="rgb(179,179,179)" stroke-linejoin="round" d="M 5136,7965 L 5136,7815"/>
 <path fill="none" stroke="rgb(179,179,179)" stroke-linejoin="round" d="M 5136,7965 L 5136,7815"/>
 <path fill="none" stroke="rgb(179,179,179)" stroke-linejoin="round" d="M 5194,7965 L 5194,7815"/>
 <path fill="none" stroke="rgb(179,179,179)" stroke-linejoin="round" d="M 5194,7965 L 5194,7815"/>
 <path fill="none" stroke="rgb(179,179,179)" stroke-linejoin="round" d="M 5252,7965 L 5252,7815"/>
 <path fill="none" stroke="rgb(179,179,179)" stroke-linejoin="round" d="M 5252,7965 L 5252,7815"/>
 <path fill="none" stroke="rgb(179,179,179)" stroke-linejoin="round" d="M 5310,7965 L 5310,7815"/>
 <path fill="none" stroke="rgb(179,179,179)" stroke-linejoin="round" d="M 5310,7965 L 5310,7815"/>
 <path fill="none" stroke="rgb(179,179,179)" stroke-linejoin="round" d="M 5369,7965 L 5369,7815"/>
 <path fill="none" stroke="rgb(179,179,179)" stroke-linejoin="round" d="M 5369,7965 L 5369,7815"/>
 <path fill="none" stroke="rgb(179,179,179)" stroke-linejoin="round" d="M 5427,7965 L 5427,7815"/>
 <path fill="none" stroke="rgb(179,179,179)" stroke-linejoin="round" d="M 5427,7965 L 5427,7815"/>
 <path fill="none" stroke="rgb(179,179,179)" stroke-linejoin="round" d="M 5485,7965 L 5485,7815"/>
 <path fill="none" stroke="rgb(179,179,179)" stroke-linejoin="round" d="M 5485,7965 L 5485,7815"/>
 <path fill="none" stroke="rgb(179,179,179)" stroke-linejoin="round" d="M 5544,7965 L 5544,7815"/>
 <path fill="none" stroke="rgb(179,179,179)" stroke-linejoin="round" d="M 5544,7965 L 5544,7815"/>
 <path fill="none" stroke="rgb(179,179,179)" stroke-linejoin="round" d="M 5602,7965 L 5602,7815"/>
 <path fill="none" stroke="rgb(179,179,179)" stroke-linejoin="round" d="M 5602,7965 L 5602,7815"/>
 <path fill="none" stroke="rgb(179,179,179)" stroke-linejoin="round" d="M 5660,7965 L 5660,7815"/>
 <path fill="none" stroke="rgb(179,179,179)" stroke-linejoin="round" d="M 5660,7965 L 5660,7815"/>
 <path fill="none" stroke="rgb(179,179,179)" stroke-linejoin="round" d="M 5718,7965 L 5718,7815"/>
 <path fill="none" stroke="rgb(179,179,179)" stroke-linejoin="round" d="M 5718,7965 L 5718,7815"/>
 <path fill="none" stroke="rgb(179,179,179)" stroke-linejoin="round" d="M 5777,7965 L 5777,7815"/>
 <path fill="none" stroke="rgb(179,179,179)" stroke-linejoin="round" d="M 5777,7965 L 5777,7815"/>
 <path fill="none" stroke="rgb(179,179,179)" stroke-linejoin="round" d="M 5835,7965 L 5835,7815"/>
 <path fill="none" stroke="rgb(179,179,179)" stroke-linejoin="round" d="M 5835,7965 L 5835,7815"/>
 <path fill="none" stroke="rgb(179,179,179)" stroke-linejoin="round" d="M 5893,7965 L 5893,7815"/>
 <path fill="none" stroke="rgb(179,179,179)" stroke-linejoin="round" d="M 5893,7965 L 5893,7815"/>
 <path fill="none" stroke="rgb(179,179,179)" stroke-linejoin="round" d="M 5951,7965 L 5951,7815"/>
 <path fill="none" stroke="rgb(179,179,179)" stroke-linejoin="round" d="M 5951,7965 L 5951,7815"/>
 <path fill="none" stroke="rgb(179,179,179)" stroke-linejoin="round" d="M 6010,7965 L 6010,7815"/>
 <path fill="none" stroke="rgb(179,179,179)" stroke-linejoin="round" d="M 6010,7965 L 6010,7815"/>
 <path fill="none" stroke="rgb(179,179,179)" stroke-linejoin="round" d="M 6068,7965 L 6068,7815"/>
 <path fill="none" stroke="rgb(179,179,179)" stroke-linejoin="round" d="M 6068,7965 L 6068,7815"/>
 <path fill="none" stroke="rgb(179,179,179)" stroke-linejoin="round" d="M 6126,7965 L 6126,7815"/>
 <path fill="none" stroke="rgb(179,179,179)" stroke-linejoin="round" d="M 6126,7965 L 6126,7815"/>
 <path fill="none" stroke="rgb(179,179,179)" stroke-linejoin="round" d="M 6185,7965 L 6185,7815"/>
 <path fill="none" stroke="rgb(179,179,179)" stroke-linejoin="round" d="M 6185,7965 L 6185,7815"/>
 <path fill="none" stroke="rgb(179,179,179)" stroke-linejoin="round" d="M 6243,7965 L 6243,7815"/>
 <path fill="none" stroke="rgb(179,179,179)" stroke-linejoin="round" d="M 6243,7965 L 6243,7815"/>
 <path fill="none" stroke="rgb(179,179,179)" stroke-linejoin="round" d="M 6301,7965 L 6301,7815"/>
 <path fill="none" stroke="rgb(179,179,179)" stroke-linejoin="round" d="M 6301,7965 L 6301,7815"/>
 <path fill="none" stroke="rgb(179,179,179)" stroke-linejoin="round" d="M 6359,7965 L 6359,7815"/>
 <path fill="none" stroke="rgb(179,179,179)" stroke-linejoin="round" d="M 6359,7965 L 6359,7815"/>
 <path fill="none" stroke="rgb(179,179,179)" stroke-linejoin="round" d="M 6418,7965 L 6418,7815"/>
 <path fill="none" stroke="rgb(179,179,179)" stroke-linejoin="round" d="M 6418,7965 L 6418,7815"/>
 <path fill="none" stroke="rgb(179,179,179)" stroke-linejoin="round" d="M 6476,7965 L 6476,7815"/>
 <path fill="none" stroke="rgb(179,179,179)" stroke-linejoin="round" d="M 6476,7965 L 6476,7815"/>
 <path fill="none" stroke="rgb(179,179,179)" stroke-linejoin="round" d="M 6534,7965 L 6534,7815"/>
 <path fill="none" stroke="rgb(179,179,179)" stroke-linejoin="round" d="M 6534,7965 L 6534,7815"/>
 <path fill="none" stroke="rgb(179,179,179)" stroke-linejoin="round" d="M 6592,7965 L 6592,7815"/>
 <path fill="none" stroke="rgb(179,179,179)" stroke-linejoin="round" d="M 6592,7965 L 6592,7815"/>
 <path fill="none" stroke="rgb(179,179,179)" stroke-linejoin="round" d="M 6651,7965 L 6651,7815"/>
 <path fill="none" stroke="rgb(179,179,179)" stroke-linejoin="round" d="M 6651,7965 L 6651,7815"/>
 <path fill="none" stroke="rgb(179,179,179)" stroke-linejoin="round" d="M 6709,7965 L 6709,7815"/>
 <path fill="none" stroke="rgb(179,179,179)" stroke-linejoin="round" d="M 6709,7965 L 6709,7815"/>
 <path fill="none" stroke="rgb(179,179,179)" stroke-linejoin="round" d="M 6767,7965 L 6767,7815"/>
 <path fill="none" stroke="rgb(179,179,179)" stroke-linejoin="round" d="M 6767,7965 L 6767,7815"/>
 <path fill="none" stroke="rgb(179,179,179)" stroke-linejoin="round" d="M 6826,7965 L 6826,7815"/>
 <path fill="none" stroke="rgb(179,179,179)" stroke-linejoin="round" d="M 6826,7965 L 6826,7815"/>
 <path fill="none" stroke="rgb(179,179,179)" stroke-linejoin="round" d="M 6884,7965 L 6884,7815"/>
 <path fill="none" stroke="rgb(179,179,179)" stroke-linejoin="round" d="M 6884,7965 L 6884,7815"/>
 <path fill="none" stroke="rgb(179,179,179)" stroke-linejoin="round" d="M 6942,7965 L 6942,7815"/>
 <path fill="none" stroke="rgb(179,179,179)" stroke-linejoin="round" d="M 6942,7965 L 6942,7815"/>
 <path fill="none" stroke="rgb(179,179,179)" stroke-linejoin="round" d="M 7000,7965 L 7000,7815"/>
 <path fill="none" stroke="rgb(179,179,179)" stroke-linejoin="round" d="M 7000,7965 L 7000,7815"/>
 <path fill="none" stroke="rgb(179,179,179)" stroke-linejoin="round" d="M 7059,7965 L 7059,7815"/>
 <path fill="none" stroke="rgb(179,179,179)" stroke-linejoin="round" d="M 7059,7965 L 7059,7815"/>
 <path fill="none" stroke="rgb(179,179,179)" stroke-linejoin="round" d="M 7117,7965 L 7117,7815"/>
 <path fill="none" stroke="rgb(179,179,179)" stroke-linejoin="round" d="M 7117,7965 L 7117,7815"/>
 <path fill="none" stroke="rgb(179,179,179)" stroke-linejoin="round" d="M 7175,7965 L 7175,7815"/>
 <path fill="none" stroke="rgb(179,179,179)" stroke-linejoin="round" d="M 7175,7965 L 7175,7815"/>
 <path fill="none" stroke="rgb(179,179,179)" stroke-linejoin="round" d="M 7233,7965 L 7233,7815"/>
 <path fill="none" stroke="rgb(179,179,179)" stroke-linejoin="round" d="M 7233,7965 L 7233,7815"/>
 <path fill="none" stroke="rgb(179,179,179)" stroke-linejoin="round" d="M 7292,7965 L 7292,7815"/>
 <path fill="none" stroke="rgb(179,179,179)" stroke-linejoin="round" d="M 7292,7965 L 7292,7815"/>
 <path fill="none" stroke="rgb(179,179,179)" stroke-linejoin="round" d="M 7350,7965 L 7350,7815"/>
 <path fill="none" stroke="rgb(179,179,179)" stroke-linejoin="round" d="M 7350,7965 L 7350,7815"/>
 <path fill="none" stroke="rgb(179,179,179)" stroke-linejoin="round" d="M 7408,7965 L 7408,7815"/>
 <path fill="none" stroke="rgb(179,179,179)" stroke-linejoin="round" d="M 7408,7965 L 7408,7815"/>
 <path fill="none" stroke="rgb(179,179,179)" stroke-linejoin="round" d="M 7467,7965 L 7467,7815"/>
 <path fill="none" stroke="rgb(179,179,179)" stroke-linejoin="round" d="M 7467,7965 L 7467,7815"/>
 <path fill="none" stroke="rgb(179,179,179)" stroke-linejoin="round" d="M 7525,7965 L 7525,7815"/>
 <path fill="none" stroke="rgb(179,179,179)" stroke-linejoin="round" d="M 7525,7965 L 7525,7815"/>
 <path fill="none" stroke="rgb(179,179,179)" stroke-linejoin="round" d="M 7583,7965 L 7583,7815"/>
 <path fill="none" stroke="rgb(179,179,179)" stroke-linejoin="round" d="M 7583,7965 L 7583,7815"/>
 <path fill="none" stroke="rgb(179,179,179)" stroke-linejoin="round" d="M 7641,7965 L 7641,7815"/>
 <path fill="none" stroke="rgb(179,179,179)" stroke-linejoin="round" d="M 7641,7965 L 7641,7815"/>
 <path fill="none" stroke="rgb(179,179,179)" stroke-linejoin="round" d="M 7700,7965 L 7700,7815"/>
 <path fill="none" stroke="rgb(179,179,179)" stroke-linejoin="round" d="M 7700,7965 L 7700,7815"/>
 <path fill="none" stroke="rgb(179,179,179)" stroke-linejoin="round" d="M 7758,7965 L 7758,7815"/>
 <path fill="none" stroke="rgb(179,179,179)" stroke-linejoin="round" d="M 7758,7965 L 7758,7815"/>
 <path fill="none" stroke="rgb(179,179,179)" stroke-linejoin="round" d="M 7816,7965 L 7816,7815"/>
 <path fill="none" stroke="rgb(179,179,179)" stroke-linejoin="round" d="M 7816,7965 L 7816,7815"/>
 <path fill="none" stroke="rgb(179,179,179)" stroke-linejoin="round" d="M 7874,7965 L 7874,7815"/>
 <path fill="none" stroke="rgb(179,179,179)" stroke-linejoin="round" d="M 7874,7965 L 7874,7815"/>
 <path fill="none" stroke="rgb(179,179,179)" stroke-linejoin="round" d="M 7933,7965 L 7933,7815"/>
 <path fill="none" stroke="rgb(179,179,179)" stroke-linejoin="round" d="M 7933,7965 L 7933,7815"/>
 <path fill="none" stroke="rgb(179,179,179)" stroke-linejoin="round" d="M 7991,7965 L 7991,7815"/>
 <path fill="none" stroke="rgb(179,179,179)" stroke-linejoin="round" d="M 7991,7965 L 7991,7815"/>
 <path fill="none" stroke="rgb(179,179,179)" stroke-linejoin="round" d="M 8048,7965 L 8048,7815"/>
 <path fill="none" stroke="rgb(179,179,179)" stroke-linejoin="round" d="M 8048,7965 L 8048,7815"/>
 <path fill="none" stroke="rgb(179,179,179)" stroke-linejoin="round" d="M 8107,7965 L 8107,7815"/>
 <path fill="none" stroke="rgb(179,179,179)" stroke-linejoin="round" d="M 8107,7965 L 8107,7815"/>
 <path fill="none" stroke="rgb(179,179,179)" stroke-linejoin="round" d="M 8165,7965 L 8165,7815"/>
 <path fill="none" stroke="rgb(179,179,179)" stroke-linejoin="round" d="M 8165,7965 L 8165,7815"/>
 <path fill="none" stroke="rgb(179,179,179)" stroke-linejoin="round" d="M 8223,7965 L 8223,7815"/>
 <path fill="none" stroke="rgb(179,179,179)" stroke-linejoin="round" d="M 8223,7965 L 8223,7815"/>
 <path fill="none" stroke="rgb(179,179,179)" stroke-linejoin="round" d="M 8281,7965 L 8281,7815"/>
 <path fill="none" stroke="rgb(179,179,179)" stroke-linejoin="round" d="M 8281,7965 L 8281,7815"/>
 <path fill="none" stroke="rgb(179,179,179)" stroke-linejoin="round" d="M 8340,7965 L 8340,7815"/>
 <path fill="none" stroke="rgb(179,179,179)" stroke-linejoin="round" d="M 8340,7965 L 8340,7815"/>
 <path fill="none" stroke="rgb(179,179,179)" stroke-linejoin="round" d="M 8398,7965 L 8398,7815"/>
 <path fill="none" stroke="rgb(179,179,179)" stroke-linejoin="round" d="M 8398,7965 L 8398,7815"/>
 <path fill="none" stroke="rgb(179,179,179)" stroke-linejoin="round" d="M 8456,7965 L 8456,7815"/>
 <path fill="none" stroke="rgb(179,179,179)" stroke-linejoin="round" d="M 8456,7965 L 8456,7815"/>
 <path fill="none" stroke="rgb(179,179,179)" stroke-linejoin="round" d="M 8514,7965 L 8514,7815"/>
 <path fill="none" stroke="rgb(179,179,179)" stroke-linejoin="round" d="M 8514,7965 L 8514,7815"/>
 <path fill="none" stroke="rgb(179,179,179)" stroke-linejoin="round" d="M 8573,7965 L 8573,7815"/>
 <path fill="none" stroke="rgb(179,179,179)" stroke-linejoin="round" d="M 8573,7965 L 8573,7815"/>
 <path fill="none" stroke="rgb(179,179,179)" stroke-linejoin="round" d="M 8631,7965 L 8631,7815"/>
 <path fill="none" stroke="rgb(179,179,179)" stroke-linejoin="round" d="M 8631,7965 L 8631,7815"/>
 <path fill="none" stroke="rgb(179,179,179)" stroke-linejoin="round" d="M 8689,7965 L 8689,7815"/>
 <path fill="none" stroke="rgb(179,179,179)" stroke-linejoin="round" d="M 8689,7965 L 8689,7815"/>
 <path fill="none" stroke="rgb(179,179,179)" stroke-linejoin="round" d="M 8748,7965 L 8748,7815"/>
 <path fill="none" stroke="rgb(179,179,179)" stroke-linejoin="round" d="M 8748,7965 L 8748,7815"/>
 <path fill="none" stroke="rgb(179,179,179)" stroke-linejoin="round" d="M 8806,7965 L 8806,7815"/>
 <path fill="none" stroke="rgb(179,179,179)" stroke-linejoin="round" d="M 8806,7965 L 8806,7815"/>
 <path fill="none" stroke="rgb(179,179,179)" stroke-linejoin="round" d="M 8864,7965 L 8864,7815"/>
 <path fill="none" stroke="rgb(179,179,179)" stroke-linejoin="round" d="M 8864,7965 L 8864,7815"/>
 <path fill="none" stroke="rgb(179,179,179)" stroke-linejoin="round" d="M 8922,7965 L 8922,7815"/>
 <path fill="none" stroke="rgb(179,179,179)" stroke-linejoin="round" d="M 8922,7965 L 8922,7815"/>
 <path fill="none" stroke="rgb(179,179,179)" stroke-linejoin="round" d="M 8981,7965 L 8981,7815"/>
 <path fill="none" stroke="rgb(179,179,179)" stroke-linejoin="round" d="M 8981,7965 L 8981,7815"/>
 <path fill="none" stroke="rgb(179,179,179)" stroke-linejoin="round" d="M 9039,7965 L 9039,7815"/>
 <path fill="none" stroke="rgb(179,179,179)" stroke-linejoin="round" d="M 9039,7965 L 9039,7815"/>
 <path fill="none" stroke="rgb(179,179,179)" stroke-linejoin="round" d="M 9097,7965 L 9097,7815"/>
 <path fill="none" stroke="rgb(179,179,179)" stroke-linejoin="round" d="M 9097,7965 L 9097,7815"/>
 <path fill="none" stroke="rgb(179,179,179)" stroke-linejoin="round" d="M 9155,7965 L 9155,7815"/>
 <path fill="none" stroke="rgb(179,179,179)" stroke-linejoin="round" d="M 9155,7965 L 9155,7815"/>
 <path fill="none" stroke="rgb(179,179,179)" stroke-linejoin="round" d="M 9214,7965 L 9214,7815"/>
 <path fill="none" stroke="rgb(179,179,179)" stroke-linejoin="round" d="M 9214,7965 L 9214,7815"/>
 <path fill="none" stroke="rgb(179,179,179)" stroke-linejoin="round" d="M 9272,7965 L 9272,7815"/>
 <path fill="none" stroke="rgb(179,179,179)" stroke-linejoin="round" d="M 9272,7965 L 9272,7815"/>
 <path fill="none" stroke="rgb(179,179,179)" stroke-linejoin="round" d="M 9330,7965 L 9330,7815"/>
 <path fill="none" stroke="rgb(179,179,179)" stroke-linejoin="round" d="M 9330,7965 L 9330,7815"/>
 <path fill="none" stroke="rgb(179,179,179)" stroke-linejoin="round" d="M 9388,7965 L 9388,7815"/>
 <path fill="none" stroke="rgb(179,179,179)" stroke-linejoin="round" d="M 9388,7965 L 9388,7815"/>
 <path fill="none" stroke="rgb(179,179,179)" stroke-linejoin="round" d="M 9447,7965 L 9447,7815"/>
 <path fill="none" stroke="rgb(179,179,179)" stroke-linejoin="round" d="M 9447,7965 L 9447,7815"/>
 <path fill="none" stroke="rgb(179,179,179)" stroke-linejoin="round" d="M 9505,7965 L 9505,7815"/>
 <path fill="none" stroke="rgb(179,179,179)" stroke-linejoin="round" d="M 9505,7965 L 9505,7815"/>
 <path fill="none" stroke="rgb(179,179,179)" stroke-linejoin="round" d="M 9563,7965 L 9563,7815"/>
 <path fill="none" stroke="rgb(179,179,179)" stroke-linejoin="round" d="M 9563,7965 L 9563,7815"/>
 <path fill="none" stroke="rgb(179,179,179)" stroke-linejoin="round" d="M 9622,7965 L 9622,7815"/>
 <path fill="none" stroke="rgb(179,179,179)" stroke-linejoin="round" d="M 9622,7965 L 9622,7815"/>
 <path fill="none" stroke="rgb(179,179,179)" stroke-linejoin="round" d="M 9680,7965 L 9680,7815"/>
 <path fill="none" stroke="rgb(179,179,179)" stroke-linejoin="round" d="M 9680,7965 L 9680,7815"/>
 <path fill="none" stroke="rgb(179,179,179)" stroke-linejoin="round" d="M 9738,7965 L 9738,7815"/>
 <path fill="none" stroke="rgb(179,179,179)" stroke-linejoin="round" d="M 9738,7965 L 9738,7815"/>
 <path fill="none" stroke="rgb(179,179,179)" stroke-linejoin="round" d="M 9796,7965 L 9796,7815"/>
 <path fill="none" stroke="rgb(179,179,179)" stroke-linejoin="round" d="M 9796,7965 L 9796,7815"/>
 <path fill="none" stroke="rgb(179,179,179)" stroke-linejoin="round" d="M 9855,7965 L 9855,7815"/>
 <path fill="none" stroke="rgb(179,179,179)" stroke-linejoin="round" d="M 9855,7965 L 9855,7815"/>
 <path fill="none" stroke="rgb(179,179,179)" stroke-linejoin="round" d="M 9913,7965 L 9913,7815"/>
 <path fill="none" stroke="rgb(179,179,179)" stroke-linejoin="round" d="M 9913,7965 L 9913,7815"/>
 <path fill="none" stroke="rgb(179,179,179)" stroke-linejoin="round" d="M 9971,7965 L 9971,7815"/>
 <path fill="none" stroke="rgb(179,179,179)" stroke-linejoin="round" d="M 9971,7965 L 9971,7815"/>
 <path fill="none" stroke="rgb(179,179,179)" stroke-linejoin="round" d="M 10029,7965 L 10029,7815"/>
 <path fill="none" stroke="rgb(179,179,179)" stroke-linejoin="round" d="M 10029,7965 L 10029,7815"/>
 <path fill="none" stroke="rgb(179,179,179)" stroke-linejoin="round" d="M 10088,7965 L 10088,7815"/>
 <path fill="none" stroke="rgb(179,179,179)" stroke-linejoin="round" d="M 10088,7965 L 10088,7815"/>
 <path fill="none" stroke="rgb(179,179,179)" stroke-linejoin="round" d="M 10146,7965 L 10146,7815"/>
 <path fill="none" stroke="rgb(179,179,179)" stroke-linejoin="round" d="M 10146,7965 L 10146,7815"/>
 <path fill="none" stroke="rgb(179,179,179)" stroke-linejoin="round" d="M 10204,7965 L 10204,7815"/>
 <path fill="none" stroke="rgb(179,179,179)" stroke-linejoin="round" d="M 10204,7965 L 10204,7815"/>
 <path fill="none" stroke="rgb(179,179,179)" stroke-linejoin="round" d="M 10263,7965 L 10263,7815"/>
 <path fill="none" stroke="rgb(179,179,179)" stroke-linejoin="round" d="M 10263,7965 L 10263,7815"/>
 <path fill="none" stroke="rgb(179,179,179)" stroke-linejoin="round" d="M 10321,7965 L 10321,7815"/>
 <path fill="none" stroke="rgb(179,179,179)" stroke-linejoin="round" d="M 10321,7965 L 10321,7815"/>
 <path fill="none" stroke="rgb(179,179,179)" stroke-linejoin="round" d="M 10379,7965 L 10379,7815"/>
 <path fill="none" stroke="rgb(179,179,179)" stroke-linejoin="round" d="M 10379,7965 L 10379,7815"/>
 <path fill="none" stroke="rgb(179,179,179)" stroke-linejoin="round" d="M 10437,7965 L 10437,7815"/>
 <path fill="none" stroke="rgb(179,179,179)" stroke-linejoin="round" d="M 10437,7965 L 10437,7815"/>
 <path fill="none" stroke="rgb(179,179,179)" stroke-linejoin="round" d="M 10496,7965 L 10496,7815"/>
 <path fill="none" stroke="rgb(179,179,179)" stroke-linejoin="round" d="M 10496,7965 L 10496,7815"/>
 <path fill="none" stroke="rgb(179,179,179)" stroke-linejoin="round" d="M 10554,7965 L 10554,7815"/>
 <path fill="none" stroke="rgb(179,179,179)" stroke-linejoin="round" d="M 10554,7965 L 10554,7815"/>
 <path fill="none" stroke="rgb(179,179,179)" stroke-linejoin="round" d="M 10612,7965 L 10612,7815"/>
 <path fill="none" stroke="rgb(179,179,179)" stroke-linejoin="round" d="M 10612,7965 L 10612,7815"/>
 <path fill="none" stroke="rgb(179,179,179)" stroke-linejoin="round" d="M 10670,7965 L 10670,7815"/>
 <path fill="none" stroke="rgb(179,179,179)" stroke-linejoin="round" d="M 10670,7965 L 10670,7815"/>
 <path fill="none" stroke="rgb(179,179,179)" stroke-linejoin="round" d="M 10729,7965 L 10729,7815"/>
 <path fill="none" stroke="rgb(179,179,179)" stroke-linejoin="round" d="M 10729,7965 L 10729,7815"/>
 <path fill="none" stroke="rgb(179,179,179)" stroke-linejoin="round" d="M 10787,7965 L 10787,7815"/>
 <path fill="none" stroke="rgb(179,179,179)" stroke-linejoin="round" d="M 10787,7965 L 10787,7815"/>
 <path fill="none" stroke="rgb(179,179,179)" stroke-linejoin="round" d="M 10845,7965 L 10845,7815"/>
 <path fill="none" stroke="rgb(179,179,179)" stroke-linejoin="round" d="M 10845,7965 L 10845,7815"/>
 <path fill="none" stroke="rgb(179,179,179)" stroke-linejoin="round" d="M 10904,7965 L 10904,7815"/>
 <path fill="none" stroke="rgb(179,179,179)" stroke-linejoin="round" d="M 10904,7965 L 10904,7815"/>
 <path fill="none" stroke="rgb(179,179,179)" stroke-linejoin="round" d="M 10962,7965 L 10962,7815"/>
 <path fill="none" stroke="rgb(179,179,179)" stroke-linejoin="round" d="M 10962,7965 L 10962,7815"/>
 <path fill="none" stroke="rgb(179,179,179)" stroke-linejoin="round" d="M 11020,7965 L 11020,7815"/>
 <path fill="none" stroke="rgb(179,179,179)" stroke-linejoin="round" d="M 11020,7965 L 11020,7815"/>
 <path fill="none" stroke="rgb(179,179,179)" stroke-linejoin="round" d="M 11078,7965 L 11078,7815"/>
 <path fill="none" stroke="rgb(179,179,179)" stroke-linejoin="round" d="M 11078,7965 L 11078,7815"/>
 <path fill="none" stroke="rgb(179,179,179)" stroke-linejoin="round" d="M 11137,7965 L 11137,7815"/>
 <path fill="none" stroke="rgb(179,179,179)" stroke-linejoin="round" d="M 11137,7965 L 11137,7815"/>
 <path fill="none" stroke="rgb(179,179,179)" stroke-linejoin="round" d="M 11195,7965 L 11195,7815"/>
 <path fill="none" stroke="rgb(179,179,179)" stroke-linejoin="round" d="M 11195,7965 L 11195,7815"/>
 <path fill="none" stroke="rgb(179,179,179)" stroke-linejoin="round" d="M 11253,7965 L 11253,7815"/>
 <path fill="none" stroke="rgb(179,179,179)" stroke-linejoin="round" d="M 11253,7965 L 11253,7815"/>
 <path fill="none" stroke="rgb(179,179,179)" stroke-linejoin="round" d="M 11311,7965 L 11311,7815"/>
 <path fill="none" stroke="rgb(179,179,179)" stroke-linejoin="round" d="M 11311,7965 L 11311,7815"/>
 <path fill="none" stroke="rgb(179,179,179)" stroke-linejoin="round" d="M 11370,7965 L 11370,7815"/>
 <path fill="none" stroke="rgb(179,179,179)" stroke-linejoin="round" d="M 11370,7965 L 11370,7815"/>
 <path fill="none" stroke="rgb(179,179,179)" stroke-linejoin="round" d="M 11428,7965 L 11428,7815"/>
 <path fill="none" stroke="rgb(179,179,179)" stroke-linejoin="round" d="M 11428,7965 L 11428,7815"/>
 <path fill="none" stroke="rgb(179,179,179)" stroke-linejoin="round" d="M 11486,7965 L 11486,7815"/>
 <path fill="none" stroke="rgb(179,179,179)" stroke-linejoin="round" d="M 11486,7965 L 11486,7815"/>
 <path fill="none" stroke="rgb(179,179,179)" stroke-linejoin="round" d="M 11545,7965 L 11545,7815"/>
 <path fill="none" stroke="rgb(179,179,179)" stroke-linejoin="round" d="M 11545,7965 L 11545,7815"/>
 <path fill="none" stroke="rgb(179,179,179)" stroke-linejoin="round" d="M 11603,7965 L 11603,7815"/>
 <path fill="none" stroke="rgb(179,179,179)" stroke-linejoin="round" d="M 11603,7965 L 11603,7815"/>
 <path fill="none" stroke="rgb(179,179,179)" stroke-linejoin="round" d="M 11661,7965 L 11661,7815"/>
 <path fill="none" stroke="rgb(179,179,179)" stroke-linejoin="round" d="M 11661,7965 L 11661,7815"/>
 <path fill="none" stroke="rgb(179,179,179)" stroke-linejoin="round" d="M 11719,7965 L 11719,7815"/>
 <path fill="none" stroke="rgb(179,179,179)" stroke-linejoin="round" d="M 11719,7965 L 11719,7815"/>
 <path fill="none" stroke="rgb(179,179,179)" stroke-linejoin="round" d="M 11778,7965 L 11778,7815"/>
 <path fill="none" stroke="rgb(179,179,179)" stroke-linejoin="round" d="M 11778,7965 L 11778,7815"/>
 <path fill="none" stroke="rgb(179,179,179)" stroke-linejoin="round" d="M 11836,7965 L 11836,7815"/>
 <path fill="none" stroke="rgb(179,179,179)" stroke-linejoin="round" d="M 11836,7965 L 11836,7815"/>
 <path fill="none" stroke="rgb(179,179,179)" stroke-linejoin="round" d="M 11894,7965 L 11894,7815"/>
 <path fill="none" stroke="rgb(179,179,179)" stroke-linejoin="round" d="M 11894,7965 L 11894,7815"/>
 <path fill="none" stroke="rgb(179,179,179)" stroke-linejoin="round" d="M 11952,7965 L 11952,7815"/>
 <path fill="none" stroke="rgb(179,179,179)" stroke-linejoin="round" d="M 11952,7965 L 11952,7815"/>
 <path fill="none" stroke="rgb(179,179,179)" stroke-linejoin="round" d="M 12011,7965 L 12011,7815"/>
 <path fill="none" stroke="rgb(179,179,179)" stroke-linejoin="round" d="M 12011,7965 L 12011,7815"/>
 <path fill="none" stroke="rgb(179,179,179)" stroke-linejoin="round" d="M 12069,7965 L 12069,7815"/>
 <path fill="none" stroke="rgb(179,179,179)" stroke-linejoin="round" d="M 12069,7965 L 12069,7815"/>
 <path fill="none" stroke="rgb(179,179,179)" stroke-linejoin="round" d="M 12127,7965 L 12127,7815"/>
 <path fill="none" stroke="rgb(179,179,179)" stroke-linejoin="round" d="M 12127,7965 L 12127,7815"/>
 <path fill="none" stroke="rgb(179,179,179)" stroke-linejoin="round" d="M 12186,7965 L 12186,7815"/>
 <path fill="none" stroke="rgb(179,179,179)" stroke-linejoin="round" d="M 12186,7965 L 12186,7815"/>
 <path fill="none" stroke="rgb(179,179,179)" stroke-linejoin="round" d="M 12244,7965 L 12244,7815"/>
 <path fill="none" stroke="rgb(179,179,179)" stroke-linejoin="round" d="M 12244,7965 L 12244,7815"/>
 <path fill="none" stroke="rgb(179,179,179)" stroke-linejoin="round" d="M 12302,7965 L 12302,7815"/>
 <path fill="none" stroke="rgb(179,179,179)" stroke-linejoin="round" d="M 12302,7965 L 12302,7815"/>
 <path fill="none" stroke="rgb(179,179,179)" stroke-linejoin="round" d="M 12360,7965 L 12360,7815"/>
 <path fill="none" stroke="rgb(179,179,179)" stroke-linejoin="round" d="M 12360,7965 L 12360,7815"/>
 <path fill="none" stroke="rgb(179,179,179)" stroke-linejoin="round" d="M 12419,7965 L 12419,7815"/>
 <path fill="none" stroke="rgb(179,179,179)" stroke-linejoin="round" d="M 12419,7965 L 12419,7815"/>
 <path fill="none" stroke="rgb(179,179,179)" stroke-linejoin="round" d="M 12477,7965 L 12477,7815"/>
 <path fill="none" stroke="rgb(179,179,179)" stroke-linejoin="round" d="M 12477,7965 L 12477,7815"/>
 <path fill="none" stroke="rgb(179,179,179)" stroke-linejoin="round" d="M 12535,7965 L 12535,7815"/>
 <path fill="none" stroke="rgb(179,179,179)" stroke-linejoin="round" d="M 12535,7965 L 12535,7815"/>
 <path fill="none" stroke="rgb(179,179,179)" stroke-linejoin="round" d="M 12593,7965 L 12593,7815"/>
 <path fill="none" stroke="rgb(179,179,179)" stroke-linejoin="round" d="M 12593,7965 L 12593,7815"/>
 <path fill="none" stroke="rgb(179,179,179)" stroke-linejoin="round" d="M 12652,7965 L 12652,7815"/>
 <path fill="none" stroke="rgb(179,179,179)" stroke-linejoin="round" d="M 12652,7965 L 12652,7815"/>
 <path fill="none" stroke="rgb(179,179,179)" stroke-linejoin="round" d="M 12710,7965 L 12710,7815"/>
 <path fill="none" stroke="rgb(179,179,179)" stroke-linejoin="round" d="M 12710,7965 L 12710,7815"/>
 <path fill="none" stroke="rgb(179,179,179)" stroke-linejoin="round" d="M 12768,7965 L 12768,7815"/>
 <path fill="none" stroke="rgb(179,179,179)" stroke-linejoin="round" d="M 12768,7965 L 12768,7815"/>
 <path fill="none" stroke="rgb(179,179,179)" stroke-linejoin="round" d="M 12827,7965 L 12827,7815"/>
 <path fill="none" stroke="rgb(179,179,179)" stroke-linejoin="round" d="M 12827,7965 L 12827,7815"/>
 <path fill="none" stroke="rgb(179,179,179)" stroke-linejoin="round" d="M 1232,7815 L 12827,7815"/>
 <path fill="none" stroke="rgb(179,179,179)" stroke-linejoin="round" d="M 1082,7815 L 1232,7815"/>
 <path fill="none" stroke="rgb(179,179,179)" stroke-linejoin="round" d="M 1082,7815 L 1232,7815"/>
 <path fill="none" stroke="rgb(179,179,179)" stroke-linejoin="round" d="M 1082,6875 L 1232,6875"/>
 <path fill="none" stroke="rgb(179,179,179)" stroke-linejoin="round" d="M 1082,6875 L 1232,6875"/>
 <path fill="none" stroke="rgb(179,179,179)" stroke-linejoin="round" d="M 1082,5936 L 1232,5936"/>
 <path fill="none" stroke="rgb(179,179,179)" stroke-linejoin="round" d="M 1082,5936 L 1232,5936"/>
 <path fill="none" stroke="rgb(179,179,179)" stroke-linejoin="round" d="M 1082,4996 L 1232,4996"/>
 <path fill="none" stroke="rgb(179,179,179)" stroke-linejoin="round" d="M 1082,4996 L 1232,4996"/>
 <path fill="none" stroke="rgb(179,179,179)" stroke-linejoin="round" d="M 1082,4058 L 1232,4058"/>
 <path fill="none" stroke="rgb(179,179,179)" stroke-linejoin="round" d="M 1082,4058 L 1232,4058"/>
 <path fill="none" stroke="rgb(179,179,179)" stroke-linejoin="round" d="M 1082,3118 L 1232,3118"/>
 <path fill="none" stroke="rgb(179,179,179)" stroke-linejoin="round" d="M 1082,3118 L 1232,3118"/>
 <path fill="none" stroke="rgb(179,179,179)" stroke-linejoin="round" d="M 1082,2179 L 1232,2179"/>
 <path fill="none" stroke="rgb(179,179,179)" stroke-linejoin="round" d="M 1082,2179 L 1232,2179"/>
 <path fill="none" stroke="rgb(179,179,179)" stroke-linejoin="round" d="M 1082,1239 L 1232,1239"/>
 <path fill="none" stroke="rgb(179,179,179)" stroke-linejoin="round" d="M 1082,1239 L 1232,1239"/>
 <path fill="none" stroke="rgb(179,179,179)" stroke-linejoin="round" d="M 1082,299 L 1232,299"/>
 <path fill="none" stroke="rgb(179,179,179)" stroke-linejoin="round" d="M 1082,299 L 1232,299"/>
 <path fill="none" stroke="rgb(179,179,179)" stroke-linejoin="round" d="M 1232,7815 L 1232,300"/>
 <path fill="none" stroke="rgb(0,69,134)" stroke-width="80" stroke-linejoin="round" d="M 1232,4828 L 1234,4835 1239,4849 1245,4863 1247,4871 1250,4879 1253,4887 1258,4904 1261,4913 1266,4932 1269,4943 1271,4954 1274,4965 1279,4990 1282,5004 1284,5018 1287,5033 1290,5049 1292,5065 1295,5082 1298,5100 1300,5118 1303,5136 1306,5154 1308,5172 1311,5189 1314,5205 1316,5221 1319,5236 1322,5249 1324,5261 1327,5271 1330,5279 1332,5285 1343,5286 1345,5280 1351,5257 1353,5240 1356,5221 1359,5199 1361,5175 1364,5148 1367,5120 1369,5089 1372,5058 1375,5024 1377,4990 1380,4955 1382,4919 1385,4883 1388,4847 1390,4810 1393,4774 1396,4739 1398,4704 1401,4670 1404,4638 1406,4607 1409,4577 1412,4549 1414,4523 1417,4500 1420,4477 1422,4456 1425,4437 1428,4420 1430,4404 1433,4391 1435,4379 1438,4370 1441,4362 1446,4353 1454,4354 1457,4359 1462,4375 1465,4386 1467,4400 1470,4415 1473,4433 1475,4451 1478,4472 1480,4493 1483,4515 1486,4538 1488,4562 1491,4586 1494,4610 1496,4635 1499,4659 1502,4682 1504,4705 1507,4727 1510,4748 1512,4767 1515,4785 1518,4801 1520,4816 1523,4828 1526,4838 1528,4845 1536,4857 1549,4851 1555,4843 1563,4832 1576,4823 1584,4833 1589,4847 1592,4856 1594,4866 1597,4877 1600,4888 1602,4901 1605,4913 1608,4926 1610,4940 1613,4953 1616,4966 1618,4978 1624,5002 1626,5013 1629,5023 1631,5031 1637,5044 1645,5052 1655,5040 1658,5034 1661,5026 1663,5017 1669,4996 1671,4984 1674,4971 1676,4957 1679,4943 1682,4928 1684,4912 1687,4896 1690,4879 1692,4863 1695,4845 1698,4828 1700,4810 1703,4793 1706,4775 1708,4758 1711,4741 1714,4724 1716,4708 1719,4692 1722,4678 1724,4664 1727,4651 1729,4639 1732,4629 1735,4620 1740,4605 1743,4601 1756,4607 1759,4614 1761,4624 1764,4635 1767,4648 1769,4663 1772,4678 1774,4694 1777,4710 1780,4726 1782,4743 1785,4758 1788,4774 1790,4788 1793,4801 1796,4812 1798,4822 1804,4835 1812,4835 1814,4828 1817,4818 1820,4804 1822,4787 1825,4767 1827,4744 1830,4719 1833,4691 1835,4662 1838,4631 1841,4598 1843,4563 1846,4528 1849,4493 1851,4456 1854,4418 1857,4381 1859,4343 1862,4306 1865,4270 1867,4234 1870,4199 1872,4166 1875,4133 1878,4103 1880,4074 1883,4047 1886,4021 1888,3998 1891,3976 1894,3957 1896,3939 1899,3924 1902,3911 1904,3901 1907,3893 1910,3887 1920,3892 1925,3912 1928,3927 1931,3944 1933,3965 1936,3989 1939,4016 1941,4044 1944,4075 1947,4108 1949,4142 1952,4177 1955,4213 1957,4249 1960,4286 1963,4322 1965,4358 1968,4393 1970,4427 1973,4459 1976,4490 1978,4518 1981,4544 1984,4568 1986,4589 1989,4607 1992,4621 1997,4639 2002,4647 2008,4646 2018,4628 2023,4616 2029,4605 2031,4600 2045,4600 2050,4616 2053,4628 2055,4642 2058,4657 2061,4675 2063,4693 2066,4712 2068,4731 2071,4750 2074,4769 2076,4787 2079,4804 2082,4819 2084,4832 2090,4852 2095,4860 2098,4858 2100,4853 2103,4843 2106,4828 2108,4808 2111,4783 2114,4755 2116,4723 2119,4688 2121,4650 2124,4611 2127,4570 2129,4528 2132,4488 2135,4446 2137,4405 2140,4366 2143,4329 2145,4294 2148,4262 2151,4234 2153,4210 2156,4190 2159,4176 2161,4168 2169,4181 2172,4197 2174,4219 2177,4245 2180,4276 2182,4309 2185,4346 2188,4384 2190,4425 2193,4466 2196,4507 2198,4549 2201,4590 2204,4630 2206,4669 2209,4704 2212,4737 2214,4767 2217,4792 2219,4813 2222,4828 2225,4837 2235,4826 2238,4812 2241,4795 2243,4774 2246,4751 2249,4726 2251,4699 2254,4670 2257,4640 2259,4610 2262,4579 2264,4548 2267,4518 2270,4489 2272,4460 2275,4434 2278,4409 2280,4386 2283,4367 2286,4350 2288,4335 2291,4323 2294,4313 2299,4300 2307,4295 2315,4304 2320,4317 2325,4333 2328,4343 2333,4364 2336,4375 2339,4386 2341,4398 2344,4410 2347,4422 2349,4434 2352,4446 2355,4458 2357,4470 2360,4481 2362,4493 2365,4503 2368,4514 2373,4536 2376,4546 2378,4555 2384,4573 2386,4581 2389,4589 2392,4595 2400,4611 2402,4615 2408,4620 2415,4624 2429,4622 2434,4619 2445,4612 2455,4607 2458,4606 2471,4605 2484,4607 2487,4607 2498,4608 2511,4607 2513,4607 2527,4597 2529,4593 2537,4578 2540,4571 2543,4563 2548,4544 2551,4532 2553,4519 2556,4505 2558,4490 2561,4473 2564,4454 2566,4433 2569,4411 2572,4386 2574,4360 2577,4332 2580,4303 2582,4273 2585,4242 2588,4211 2590,4180 2593,4150 2596,4120 2598,4091 2601,4063 2604,4037 2606,4013 2609,3992 2611,3973 2614,3957 2619,3936 2622,3931 2627,3935 2633,3959 2635,3978 2638,4001 2641,4029 2643,4060 2646,4093 2649,4129 2651,4167 2654,4206 2656,4246 2659,4286 2662,4326 2664,4365 2667,4404 2670,4440 2672,4475 2675,4505 2678,4534 2680,4559 2683,4580 2686,4596 2691,4612 2699,4599 2702,4586 2704,4569 2707,4549 2709,4527 2712,4502 2715,4477 2717,4449 2720,4420 2723,4390 2725,4360 2728,4331 2731,4302 2733,4274 2736,4248 2739,4223 2741,4201 2744,4182 2747,4166 2749,4153 2752,4144 2760,4134 2768,4149 2770,4158 2773,4170 2776,4183 2778,4197 2781,4213 2784,4230 2786,4248 2789,4267 2792,4286 2794,4306 2797,4326 2800,4347 2802,4367 2805,4386 2807,4406 2810,4424 2813,4442 2815,4460 2818,4476 2821,4492 2823,4506 2826,4521 2829,4534 2831,4547 2834,4558 2837,4569 2842,4586 2847,4599 2853,4607 2855,4609 2863,4607 2871,4591 2876,4574 2879,4565 2884,4543 2887,4531 2890,4519 2892,4507 2895,4495 2898,4482 2900,4470 2903,4457 2905,4445 2908,4434 2911,4422 2913,4412 2916,4403 2919,4394 2924,4380 2932,4367 2937,4363 2953,4366 2958,4370 2966,4377 2974,4384 2980,4386 2993,4386 3006,4381 3022,4377 3035,4383 3046,4398 3049,4403 3054,4413 3059,4422 3062,4426 3070,4435 3075,4437 3080,4434 3088,4418 3091,4410 3094,4399 3096,4386 3099,4371 3101,4355 3104,4336 3107,4316 3109,4294 3112,4272 3115,4248 3117,4224 3120,4200 3123,4175 3125,4150 3128,4126 3131,4102 3133,4079 3136,4056 3139,4035 3141,4015 3144,3997 3147,3980 3149,3966 3152,3954 3154,3944 3160,3933 3162,3931 3168,3934 3173,3944 3176,3952 3178,3962 3181,3973 3184,3985 3186,3999 3189,4013 3192,4029 3194,4045 3197,4061 3199,4079 3202,4096 3205,4113 3207,4131 3210,4148 3213,4166 3215,4182 3218,4198 3221,4214 3223,4228 3226,4242 3229,4254 3231,4265 3237,4283 3242,4293 3252,4287 3255,4279 3258,4268 3260,4254 3263,4237 3266,4217 3268,4193 3271,4166 3274,4134 3276,4100 3279,4063 3282,4023 3284,3982 3287,3940 3290,3896 3292,3853 3295,3810 3297,3767 3300,3726 3303,3687 3305,3650 3308,3615 3311,3584 3313,3557 3316,3534 3319,3516 3321,3503 3324,3496 3332,3516 3335,3536 3337,3562 3340,3594 3343,3631 3345,3671 3348,3716 3350,3763 3353,3813 3356,3864 3358,3917 3361,3970 3364,4023 3366,4075 3369,4125 3372,4174 3374,4220 3377,4262 3380,4301 3382,4335 3385,4363 3388,4386 3390,4403 3393,4414 3403,4403 3406,4389 3409,4371 3411,4350 3414,4326 3417,4300 3419,4271 3422,4240 3425,4208 3427,4175 3430,4141 3433,4106 3435,4072 3438,4039 3441,4006 3443,3974 3446,3944 3448,3916 3451,3890 3454,3866 3456,3844 3459,3824 3462,3805 3464,3788 3467,3773 3470,3760 3472,3748 3475,3738 3478,3730 3483,3718 3488,3711 3501,3718 3504,3724 3509,3737 3515,3755 3517,3764 3520,3775 3523,3786 3528,3809 3531,3821 3533,3833 3536,3845 3539,3857 3541,3869 3544,3881 3546,3892 3552,3913 3554,3922 3557,3930 3560,3938 3565,3950 3570,3957 3573,3959 3581,3956 3586,3947 3589,3940 3594,3922 3597,3910 3599,3897 3602,3882 3605,3865 3607,3846 3610,3826 3613,3803 3615,3779 3618,3752 3621,3724 3623,3693 3626,3660 3629,3626 3631,3591 3634,3555 3637,3518 3639,3481 3642,3443 3644,3406 3647,3369 3650,3333 3652,3297 3655,3263 3658,3231 3660,3200 3663,3172 3666,3146 3668,3122 3671,3102 3674,3084 3676,3070 3679,3060 3682,3054 3689,3058 3695,3077 3697,3091 3700,3108 3703,3127 3705,3148 3708,3171 3711,3196 3713,3223 3716,3251 3719,3281 3721,3311 3724,3342 3727,3374 3729,3406 3732,3438 3735,3470 3737,3502 3740,3534 3742,3565 3745,3595 3748,3625 3750,3654 3753,3682 3756,3710 3758,3736 3761,3761 3764,3785 3766,3807 3769,3828 3772,3848 3774,3866 3777,3883 3780,3897 3782,3910 3785,3921 3790,3937 3806,3933 3809,3925 3811,3916 3817,3895 3819,3883 3822,3870 3825,3856 3827,3842 3830,3828 3833,3814 3835,3801 3838,3787 3840,3774 3843,3762 3846,3750 3848,3740 3851,3731 3856,3717 3859,3713 3875,3709 3888,3721 3901,3730 3915,3719 3920,3706 3925,3688 3928,3679 3933,3657 3936,3645 3938,3633 3941,3621 3944,3609 3946,3596 3949,3584 3952,3572 3954,3560 3957,3549 3960,3538 3962,3528 3965,3518 3970,3502 3976,3490 3983,3480 3997,3477 4007,3483 4013,3488 4021,3495 4026,3500 4039,3508 4052,3510 4066,3509 4071,3507 4081,3504 4095,3500 4108,3497 4121,3496 4134,3498 4148,3504 4156,3509 4164,3515 4177,3521 4187,3520 4190,3518 4201,3507 4203,3502 4209,3491 4214,3477 4217,3469 4219,3460 4222,3451 4227,3431 4230,3421 4232,3410 4235,3399 4238,3388 4243,3365 4246,3353 4248,3341 4251,3329 4254,3317 4256,3305 4259,3293 4262,3281 4267,3259 4270,3248 4272,3238 4275,3228 4280,3211 4285,3198 4293,3189 4299,3191 4301,3194 4307,3207 4309,3217 4312,3229 4315,3244 4317,3261 4320,3281 4323,3304 4325,3330 4328,3357 4330,3387 4333,3418 4336,3451 4338,3485 4341,3520 4344,3555 4346,3591 4349,3627 4352,3662 4354,3697 4357,3732 4360,3765 4362,3797 4365,3827 4368,3855 4370,3881 4373,3905 4376,3926 4378,3944 4381,3959 4383,3971 4386,3979 4389,3985 4397,3986 4399,3981 4405,3964 4407,3953 4410,3939 4413,3924 4415,3907 4418,3888 4421,3868 4423,3847 4426,3824 4428,3800 4431,3776 4434,3750 4436,3724 4439,3696 4442,3669 4444,3641 4447,3613 4450,3585 4452,3557 4455,3530 4458,3503 4460,3477 4463,3452 4466,3428 4468,3405 4471,3383 4474,3363 4476,3345 4479,3329 4481,3315 4484,3303 4487,3294 4492,3283 4495,3281 4497,3283 4505,3305 4508,3316 4511,3329 4513,3343 4516,3358 4519,3374 4521,3390 4524,3407 4526,3423 4529,3438 4532,3453 4534,3466 4537,3478 4540,3488 4542,3496 4548,3505 4558,3486 4561,3473 4564,3457 4566,3439 4569,3419 4572,3397 4574,3373 4577,3349 4579,3323 4582,3297 4585,3271 4587,3245 4590,3219 4593,3194 4595,3169 4598,3146 4601,3125 4603,3105 4606,3088 4609,3073 4611,3060 4614,3051 4617,3045 4619,3041 4627,3045 4630,3050 4632,3058 4638,3079 4640,3091 4643,3105 4646,3120 4648,3136 4651,3153 4654,3171 4656,3189 4659,3207 4662,3226 4664,3245 4667,3263 4670,3281 4672,3299 4675,3317 4677,3334 4680,3350 4683,3366 4685,3381 4688,3395 4691,3409 4693,3422 4696,3434 4699,3445 4701,3456 4707,3474 4709,3481 4712,3488 4717,3497 4728,3502 4736,3493 4741,3481 4746,3465 4752,3446 4754,3435 4757,3424 4760,3412 4762,3400 4765,3388 4768,3375 4770,3361 4773,3348 4775,3335 4778,3321 4781,3308 4783,3295 4786,3281 4789,3269 4794,3244 4797,3232 4799,3220 4802,3208 4805,3197 4807,3186 4810,3175 4815,3155 4818,3145 4820,3135 4823,3126 4826,3116 4828,3108 4834,3091 4836,3083 4842,3067 4847,3053 4850,3047 4852,3040 4858,3029 4866,3017 4879,3010 4889,3021 4892,3026 4895,3033 4900,3050 4903,3060 4905,3072 4908,3085 4911,3099 4913,3113 4916,3129 4918,3144 4921,3160 4924,3176 4926,3191 4929,3206 4932,3221 4934,3235 4937,3247 4940,3259 4945,3277 4948,3283 4961,3281 4966,3262 4969,3248 4971,3233 4974,3216 4977,3198 4979,3179 4982,3160 4985,3141 4987,3122 4990,3103 4993,3086 4995,3071 4998,3057 5001,3046 5003,3037 5009,3029 5014,3035 5016,3045 5019,3060 5022,3080 5024,3105 5027,3133 5030,3166 5032,3201 5035,3239 5038,3279 5040,3320 5043,3362 5046,3404 5048,3445 5051,3486 5054,3526 5056,3563 5059,3598 5062,3630 5064,3658 5067,3682 5069,3701 5072,3714 5075,3722 5080,3718 5083,3706 5085,3688 5088,3665 5091,3638 5093,3606 5096,3571 5099,3534 5101,3494 5104,3453 5107,3411 5109,3368 5112,3326 5114,3285 5117,3245 5120,3207 5122,3172 5125,3141 5128,3113 5130,3090 5133,3072 5136,3060 5138,3054 5144,3060 5146,3070 5149,3085 5152,3103 5154,3125 5157,3150 5160,3177 5162,3206 5165,3236 5167,3266 5170,3297 5173,3328 5175,3358 5178,3387 5181,3413 5183,3438 5186,3459 5189,3478 5191,3492 5194,3502 5197,3508 5202,3505 5207,3486 5210,3472 5212,3455 5215,3435 5218,3412 5220,3388 5223,3362 5226,3335 5228,3307 5231,3278 5234,3249 5236,3219 5239,3190 5242,3162 5244,3134 5247,3108 5250,3083 5252,3060 5255,3040 5258,3021 5260,3005 5263,2990 5268,2968 5271,2960 5276,2950 5287,2952 5292,2964 5297,2984 5300,2996 5303,3009 5305,3025 5308,3042 5310,3060 5313,3080 5316,3102 5318,3124 5321,3147 5324,3171 5326,3196 5329,3221 5332,3246 5334,3271 5337,3296 5340,3320 5342,3344 5345,3367 5348,3389 5350,3409 5353,3428 5356,3446 5358,3462 5361,3475 5363,3487 5366,3496 5374,3507 5385,3489 5387,3480 5393,3458 5395,3445 5398,3431 5401,3417 5403,3402 5406,3387 5408,3372 5411,3357 5414,3343 5416,3329 5419,3315 5422,3303 5424,3292 5427,3281 5432,3266 5438,3255 5443,3249 5456,3250 5464,3257 5469,3264 5475,3270 5483,3279 5488,3283 5496,3287 5512,3286 5525,3282 5528,3282 5538,3281 5546,3282 5552,3285 5565,3293 5570,3296 5581,3299 5594,3293 5602,3281 5607,3270 5610,3263 5612,3255 5618,3238 5620,3228 5626,3208 5628,3197 5631,3186 5634,3175 5639,3152 5642,3140 5644,3128 5647,3116 5650,3105 5652,3093 5655,3082 5660,3060 5663,3050 5665,3040 5671,3022 5673,3013 5676,3006 5679,2999 5684,2989 5689,2984 5703,2993 5708,3008 5710,3018 5716,3044 5718,3060 5721,3079 5724,3099 5726,3121 5729,3145 5732,3171 5734,3198 5737,3227 5740,3257 5742,3287 5745,3319 5748,3352 5750,3385 5753,3419 5755,3453 5758,3487 5761,3522 5763,3556 5766,3591 5769,3625 5771,3658 5774,3691 5777,3724 5779,3755 5782,3785 5785,3815 5787,3842 5790,3869 5793,3894 5795,3917 5798,3938 5801,3957 5803,3974 5806,3988 5808,4000 5814,4015 5824,4009 5827,3998 5830,3984 5832,3966 5835,3944 5838,3918 5840,3888 5843,3854 5846,3818 5848,3778 5851,3737 5853,3693 5856,3648 5859,3601 5861,3554 5864,3506 5867,3458 5869,3411 5872,3364 5875,3318 5877,3274 5880,3231 5883,3191 5885,3154 5888,3119 5891,3088 5893,3060 5896,3037 5899,3017 5901,3001 5904,2988 5909,2972 5922,2974 5925,2980 5930,2994 5936,3011 5938,3020 5944,3038 5946,3046 5951,3060 5959,3072 5965,3076 5978,3072 5981,3070 5991,3062 6007,3058 6018,3071 6020,3077 6026,3090 6028,3098 6034,3115 6036,3125 6042,3146 6044,3158 6047,3170 6049,3183 6052,3196 6055,3209 6057,3223 6060,3237 6063,3252 6065,3266 6068,3281 6071,3297 6073,3312 6076,3328 6079,3343 6081,3358 6084,3373 6087,3388 6089,3402 6092,3416 6095,3429 6097,3441 6102,3463 6105,3473 6108,3482 6113,3495 6116,3499 6129,3499 6132,3493 6137,3478 6142,3458 6145,3447 6147,3435 6150,3422 6153,3409 6155,3396 6158,3382 6161,3369 6163,3356 6166,3343 6169,3331 6171,3320 6177,3301 6179,3293 6185,3281 6198,3279 6203,3285 6211,3296 6222,3309 6227,3311 6232,3308 6240,3291 6243,3281 6248,3255 6251,3239 6253,3221 6256,3202 6259,3181 6261,3159 6264,3136 6267,3113 6269,3089 6272,3065 6275,3040 6277,3016 6280,2992 6283,2969 6285,2946 6288,2925 6291,2905 6293,2886 6296,2868 6298,2853 6301,2839 6304,2828 6309,2811 6314,2801 6322,2797 6333,2806 6336,2810 6343,2822 6349,2830 6351,2833 6365,2838 6375,2829 6378,2826 6386,2816 6391,2811 6404,2810 6412,2823 6418,2839 6420,2850 6423,2863 6426,2877 6428,2893 6431,2910 6434,2928 6436,2947 6439,2968 6441,2989 6444,3011 6447,3033 6449,3056 6452,3080 6455,3103 6457,3127 6460,3150 6463,3173 6465,3196 6468,3218 6471,3240 6473,3261 6476,3281 6479,3301 6481,3319 6484,3336 6487,3351 6489,3365 6492,3378 6494,3389 6500,3406 6502,3411 6508,3415 6510,3414 6516,3404 6518,3396 6521,3384 6524,3370 6526,3352 6529,3332 6532,3308 6534,3281 6537,3251 6539,3218 6542,3182 6545,3145 6547,3105 6550,3065 6553,3023 6555,2982 6558,2940 6561,2900 6563,2860 6566,2822 6569,2785 6571,2751 6574,2720 6577,2692 6579,2668 6582,2648 6585,2632 6590,2617 6595,2625 6598,2638 6600,2657 6603,2680 6606,2707 6608,2738 6611,2772 6614,2809 6616,2847 6619,2887 6622,2928 6624,2969 6627,3011 6630,3051 6632,3090 6635,3127 6637,3162 6640,3194 6643,3222 6645,3247 6648,3267 6651,3281 6653,3291 6664,3279 6667,3265 6669,3248 6672,3228 6675,3206 6677,3181 6680,3154 6683,3126 6685,3096 6688,3066 6690,3035 6693,3004 6696,2974 6698,2944 6701,2915 6704,2888 6706,2862 6709,2839 6712,2818 6714,2800 6717,2784 6720,2770 6722,2759 6725,2750 6730,2738 6735,2734 6743,2741 6749,2754 6754,2772 6757,2783 6759,2796 6762,2809 6765,2824 6767,2839 6770,2855 6773,2872 6775,2890 6778,2908 6781,2926 6783,2943 6786,2961 6788,2978 6791,2995 6794,3010 6796,3025 6799,3038 6802,3050 6804,3060 6810,3075 6818,3080 6826,3060 6828,3047 6831,3031 6833,3012 6836,2991 6839,2968 6841,2944 6844,2918 6847,2891 6849,2864 6852,2836 6855,2809 6857,2782 6860,2756 6863,2731 6865,2708 6868,2687 6871,2667 6873,2651 6876,2637 6879,2627 6884,2618 6886,2620 6892,2635 6894,2648 6897,2664 6900,2682 6902,2703 6905,2726 6908,2750 6910,2776 6913,2803 6916,2830 6918,2857 6921,2885 6924,2912 6926,2938 6929,2963 6931,2987 6934,3009 6937,3028 6939,3046 6942,3060 6945,3072 6950,3085 6955,3088 6961,3082 6966,3066 6969,3056 6974,3030 6977,3015 6979,2998 6982,2981 6984,2962 6987,2943 6990,2923 6992,2902 6995,2881 6998,2860 7000,2839 7003,2818 7006,2797 7008,2776 7011,2756 7014,2736 7016,2717 7019,2699 7022,2682 7024,2666 7027,2651 7030,2638 7032,2626 7035,2615 7037,2607 7040,2600 7051,2595 7056,2608 7061,2631 7064,2647 7067,2666 7069,2686 7072,2708 7075,2731 7077,2756 7080,2782 7082,2808 7085,2834 7088,2860 7090,2886 7093,2911 7096,2936 7098,2959 7101,2980 7104,3000 7106,3018 7109,3033 7112,3045 7117,3060 7120,3063 7128,3050 7130,3040 7133,3027 7135,3011 7138,2994 7141,2974 7143,2952 7146,2929 7149,2904 7151,2878 7154,2851 7157,2823 7159,2794 7162,2765 7165,2736 7167,2706 7170,2676 7173,2647 7175,2618 7178,2590 7180,2563 7183,2536 7186,2511 7188,2487 7191,2464 7194,2443 7196,2423 7199,2405 7202,2389 7204,2375 7207,2364 7212,2347 7218,2341 7226,2354 7231,2379 7233,2397 7236,2418 7239,2443 7241,2470 7244,2501 7247,2533 7249,2567 7252,2603 7255,2639 7257,2677 7260,2715 7263,2753 7265,2790 7268,2827 7271,2862 7273,2896 7276,2928 7278,2958 7281,2985 7284,3009 7286,3030 7289,3047 7292,3060 7297,3073 7300,3074 7305,3065 7310,3046 7313,3033 7316,3019 7318,3003 7321,2986 7324,2968 7326,2951 7329,2933 7331,2916 7334,2900 7337,2885 7339,2871 7345,2850 7347,2843 7355,2840 7358,2845 7363,2862 7366,2873 7369,2886 7371,2900 7374,2915 7376,2931 7379,2946 7382,2962 7384,2978 7387,2993 7390,3008 7392,3021 7395,3033 7400,3051 7403,3057 7408,3060 7414,3052 7416,3043 7422,3018 7424,3003 7427,2985 7429,2965 7432,2944 7435,2922 7437,2898 7440,2874 7443,2848 7445,2822 7448,2796 7451,2769 7453,2743 7456,2717 7459,2691 7461,2666 7464,2641 7467,2618 7469,2596 7472,2575 7474,2556 7477,2537 7480,2520 7482,2504 7485,2489 7488,2475 7490,2462 7493,2451 7496,2441 7498,2431 7504,2416 7506,2410 7509,2405 7520,2396 7533,2406 7535,2411 7541,2424 7546,2439 7549,2448 7554,2468 7557,2479 7559,2491 7562,2503 7565,2516 7567,2529 7570,2543 7572,2557 7575,2572 7578,2587 7580,2602 7583,2618 7586,2634 7588,2651 7591,2667 7594,2684 7596,2700 7599,2716 7602,2732 7604,2747 7607,2761 7610,2775 7612,2788 7615,2800 7618,2811 7620,2820 7625,2836 7628,2841 7633,2846 7639,2843 7644,2832 7647,2824 7649,2813 7652,2801 7655,2788 7657,2773 7660,2758 7663,2743 7665,2727 7668,2711 7670,2696 7673,2681 7676,2667 7678,2654 7681,2642 7684,2632 7689,2617 7697,2613 7702,2626 7705,2637 7708,2651 7710,2666 7713,2684 7716,2702 7718,2722 7721,2742 7723,2762 7726,2782 7729,2801 7731,2818 7734,2835 7737,2849 7739,2860 7745,2875 7753,2868 7755,2856 7758,2839 7761,2816 7763,2789 7766,2756 7768,2720 7771,2681 7774,2640 7776,2596 7779,2552 7782,2507 7784,2462 7787,2418 7790,2375 7792,2335 7795,2297 7798,2263 7800,2233 7803,2208 7806,2188 7808,2174 7811,2167 7816,2176 7819,2193 7821,2218 7824,2250 7827,2288 7829,2332 7832,2380 7835,2431 7837,2486 7840,2542 7843,2599 7845,2657 7848,2714 7851,2769 7853,2822 7856,2872 7859,2918 7861,2959 7864,2994 7866,3023 7869,3044 7874,3060 7877,3054 7880,3039 7882,3015 7885,2984 7888,2947 7890,2904 7893,2856 7896,2805 7898,2750 7901,2694 7904,2636 7906,2578 7909,2520 7912,2465 7914,2411 7917,2361 7919,2314 7922,2273 7925,2238 7927,2209 7930,2188 7933,2176 7941,2192 7943,2212 7946,2238 7949,2270 7951,2307 7954,2347 7957,2389 7959,2434 7962,2481 7964,2527 7967,2574 7970,2619 7972,2662 7975,2702 7978,2739 7980,2771 7983,2798 7986,2819 7988,2833 7996,2827 7999,2810 8001,2787 8003,2758 8006,2725 8009,2687 8011,2647 8014,2604 8016,2560 8019,2514 8022,2469 8024,2424 8027,2380 8030,2339 8032,2301 8035,2266 8038,2236 8040,2211 8043,2193 8046,2181 8054,2191 8056,2209 8059,2233 8061,2263 8064,2297 8067,2335 8069,2375 8072,2418 8075,2463 8077,2508 8080,2554 8083,2598 8085,2641 8088,2682 8091,2719 8093,2753 8096,2783 8099,2807 8101,2824 8104,2836 8109,2834 8112,2822 8114,2802 8117,2777 8120,2745 8122,2708 8125,2667 8128,2622 8130,2574 8133,2523 8136,2471 8138,2417 8141,2363 8144,2308 8146,2255 8149,2203 8152,2152 8154,2105 8157,2061 8159,2021 8162,1985 8165,1955 8167,1930 8170,1911 8173,1898 8175,1889 8178,1885 8186,1896 8189,1906 8191,1920 8194,1936 8197,1954 8199,1973 8202,1995 8205,2017 8207,2040 8210,2064 8212,2087 8215,2111 8218,2134 8220,2156 8223,2176 8226,2195 8228,2213 8231,2229 8234,2244 8236,2257 8239,2270 8242,2281 8244,2291 8247,2301 8250,2310 8252,2318 8257,2333 8260,2340 8263,2347 8268,2360 8273,2374 8276,2381 8281,2397 8287,2415 8289,2424 8292,2434 8297,2455 8300,2466 8303,2477 8305,2488 8310,2511 8313,2522 8316,2533 8318,2544 8321,2555 8326,2575 8329,2585 8332,2594 8337,2611 8342,2625 8348,2637 8355,2649 8358,2652 8371,2656 8385,2645 8393,2630 8398,2618 8403,2604 8408,2587 8411,2578 8416,2559 8419,2549 8422,2539 8427,2518 8430,2507 8432,2496 8435,2485 8440,2462 8443,2451 8446,2440 8448,2429 8451,2418 8453,2407 8456,2397 8459,2387 8461,2377 8464,2367 8467,2358 8469,2350 8475,2335 8480,2324 8496,2322 8501,2333 8504,2342 8509,2365 8512,2380 8514,2397 8517,2416 8520,2438 8522,2461 8525,2486 8528,2512 8530,2539 8533,2566 8536,2594 8538,2621 8541,2648 8544,2675 8546,2701 8549,2725 8552,2748 8554,2769 8557,2788 8559,2804 8562,2818 8565,2829 8567,2836 8578,2826 8581,2814 8583,2799 8586,2781 8589,2760 8591,2738 8594,2714 8597,2688 8599,2661 8602,2634 8604,2607 8607,2579 8610,2552 8612,2526 8615,2501 8618,2478 8620,2456 8623,2437 8626,2421 8628,2407 8634,2390 8644,2396 8647,2404 8650,2414 8652,2425 8655,2439 8657,2453 8660,2468 8663,2484 8665,2501 8668,2517 8671,2533 8673,2549 8676,2564 8679,2578 8681,2591 8684,2602 8687,2611 8692,2623 8700,2624 8705,2615 8710,2599 8713,2589 8716,2578 8718,2566 8721,2552 8724,2538 8726,2524 8729,2508 8732,2493 8734,2477 8737,2460 8740,2444 8742,2428 8745,2412 8748,2397 8750,2382 8753,2368 8755,2354 8758,2340 8761,2327 8766,2303 8769,2291 8771,2280 8774,2270 8777,2260 8782,2241 8785,2232 8790,2215 8793,2208 8798,2194 8803,2182 8811,2166 8819,2154 8824,2149 8838,2143 8853,2155 8856,2159 8861,2170 8867,2183 8872,2199 8877,2217 8880,2227 8883,2237 8888,2258 8891,2269 8893,2280 8896,2291 8898,2303 8904,2325 8906,2336 8909,2347 8912,2358 8914,2368 8920,2388 8922,2397 8928,2414 8930,2421 8936,2435 8944,2449 8949,2454 8962,2451 8967,2442 8973,2428 8975,2419 8981,2397 8983,2384 8986,2370 8989,2354 8991,2338 8994,2322 8996,2305 8999,2288 9002,2271 9004,2254 9007,2239 9010,2224 9012,2210 9015,2197 9018,2185 9020,2176 9023,2168 9031,2159 9039,2176 9042,2188 9044,2204 9047,2222 9049,2243 9052,2265 9055,2290 9057,2315 9060,2342 9063,2369 9065,2397 9068,2425 9071,2452 9073,2478 9076,2503 9079,2527 9081,2548 9084,2568 9087,2585 9089,2598 9092,2609 9100,2617 9105,2601 9108,2589 9110,2573 9113,2554 9116,2533 9118,2510 9121,2486 9124,2460 9126,2433 9129,2406 9132,2378 9134,2351 9137,2324 9140,2297 9142,2272 9145,2249 9147,2227 9150,2207 9153,2190 9155,2176 9158,2165 9163,2152 9169,2150 9174,2158 9179,2174 9182,2185 9185,2198 9187,2212 9190,2227 9192,2243 9195,2261 9198,2279 9200,2298 9203,2317 9206,2337 9208,2357 9211,2377 9214,2397 9216,2416 9219,2436 9222,2454 9224,2472 9227,2490 9230,2507 9232,2523 9235,2538 9238,2552 9240,2566 9243,2578 9245,2589 9248,2599 9251,2607 9256,2620 9264,2627 9272,2618 9277,2603 9280,2592 9285,2568 9288,2555 9290,2540 9293,2526 9296,2511 9298,2496 9301,2481 9304,2467 9306,2453 9309,2440 9312,2429 9314,2418 9320,2403 9333,2402 9336,2410 9341,2432 9343,2445 9346,2460 9349,2476 9351,2493 9354,2510 9357,2527 9359,2543 9362,2560 9365,2575 9367,2589 9370,2601 9373,2612 9375,2620 9388,2618 9394,2592 9396,2574 9399,2553 9402,2530 9404,2504 9407,2477 9410,2449 9412,2421 9415,2392 9418,2363 9420,2335 9423,2307 9426,2281 9428,2257 9431,2236 9434,2217 9436,2201 9439,2188 9441,2180 9444,2175 9449,2182 9455,2207 9457,2225 9460,2247 9463,2271 9465,2298 9468,2326 9471,2355 9473,2386 9476,2416 9479,2446 9481,2475 9484,2503 9486,2529 9489,2553 9492,2574 9494,2591 9497,2605 9500,2614 9510,2600 9513,2583 9516,2562 9518,2537 9521,2508 9524,2477 9526,2442 9529,2406 9532,2368 9534,2329 9537,2289 9539,2249 9542,2209 9545,2170 9547,2132 9550,2096 9553,2062 9555,2030 9558,2001 9561,1976 9563,1955 9566,1938 9569,1925 9571,1917 9582,1916 9584,1924 9587,1933 9590,1946 9592,1960 9595,1975 9598,1993 9600,2011 9603,2031 9606,2051 9608,2072 9611,2093 9614,2115 9616,2136 9619,2156 9622,2176 9624,2195 9627,2213 9630,2230 9632,2247 9635,2262 9637,2277 9640,2290 9643,2303 9645,2315 9651,2336 9653,2346 9656,2354 9661,2369 9664,2375 9667,2381 9677,2395 9690,2398 9701,2392 9706,2389 9720,2383 9733,2389 9738,2397 9743,2409 9746,2416 9749,2424 9754,2442 9757,2453 9759,2463 9762,2474 9767,2497 9770,2508 9773,2520 9775,2532 9778,2544 9780,2555 9783,2567 9788,2589 9791,2599 9794,2609 9799,2627 9802,2635 9807,2648 9815,2663 9828,2671 9841,2657 9844,2651 9847,2645 9852,2628 9855,2618 9857,2607 9860,2595 9863,2583 9865,2570 9868,2556 9871,2542 9873,2528 9876,2513 9878,2499 9881,2485 9884,2472 9886,2459 9892,2436 9894,2426 9897,2417 9902,2403 9913,2397 9921,2414 9924,2423 9926,2433 9929,2445 9931,2457 9934,2471 9937,2485 9939,2499 9942,2513 9945,2528 9947,2542 9950,2555 9953,2568 9955,2580 9961,2599 9963,2607 9966,2613 9979,2609 9982,2601 9984,2591 9987,2579 9990,2565 9992,2550 9995,2532 9998,2513 10000,2492 10003,2470 10006,2446 10008,2420 10011,2393 10014,2366 10016,2336 10019,2306 10022,2275 10024,2243 10027,2210 10029,2176 10032,2142 10035,2107 10037,2072 10040,2037 10043,2003 10045,1969 10048,1936 10051,1904 10053,1874 10056,1845 10059,1819 10061,1794 10064,1773 10067,1754 10069,1738 10072,1725 10075,1716 10077,1711 10085,1721 10088,1734 10090,1752 10093,1774 10096,1801 10098,1831 10101,1865 10104,1901 10106,1939 10109,1978 10112,2019 10114,2060 10117,2101 10120,2141 10122,2180 10125,2218 10127,2253 10130,2286 10133,2316 10135,2342 10138,2363 10141,2380 10143,2391 10146,2397 10151,2390 10154,2378 10157,2361 10159,2340 10162,2314 10165,2285 10167,2253 10170,2218 10173,2181 10175,2142 10178,2102 10180,2061 10183,2020 10186,1979 10188,1939 10191,1899 10194,1861 10196,1825 10199,1792 10202,1761 10204,1734 10207,1710 10210,1690 10212,1673 10215,1660 10218,1650 10223,1637 10228,1634 10233,1639 10241,1657 10244,1666 10249,1684 10252,1694 10255,1705 10257,1715 10260,1724 10263,1734 10268,1750 10271,1758 10276,1772 10281,1786 10284,1793 10286,1800 10292,1815 10297,1832 10300,1841 10302,1851 10308,1875 10310,1888 10313,1903 10316,1919 10318,1936 10321,1955 10323,1975 10326,1997 10329,2021 10331,2045 10334,2070 10337,2095 10339,2121 10342,2147 10345,2173 10347,2198 10350,2223 10353,2247 10355,2270 10358,2292 10361,2313 10363,2332 10366,2348 10369,2363 10371,2376 10374,2386 10379,2397 10387,2391 10392,2375 10395,2365 10398,2352 10400,2339 10403,2324 10406,2309 10408,2293 10411,2277 10414,2262 10416,2247 10419,2232 10421,2219 10424,2207 10429,2188 10432,2181 10435,2177 10443,2182 10448,2198 10451,2208 10456,2234 10459,2249 10461,2264 10464,2280 10467,2296 10469,2311 10472,2327 10474,2341 10477,2355 10482,2377 10485,2386 10490,2397 10498,2392 10504,2374 10506,2360 10509,2345 10512,2327 10514,2308 10517,2287 10519,2264 10522,2240 10525,2216 10527,2191 10530,2165 10533,2139 10535,2113 10538,2088 10541,2063 10543,2039 10546,2016 10549,1994 10551,1974 10554,1955 10557,1938 10559,1923 10562,1910 10565,1899 10567,1890 10572,1877 10586,1870 10591,1878 10596,1890 10599,1899 10602,1908 10604,1918 10610,1942 10612,1955 10615,1969 10617,1984 10620,1999 10623,2015 10625,2031 10628,2047 10631,2063 10633,2078 10636,2094 10639,2108 10641,2122 10644,2135 10647,2147 10649,2157 10655,2174 10660,2183 10668,2182 10673,2168 10678,2144 10681,2129 10684,2112 10686,2093 10689,2073 10692,2052 10694,2029 10697,2006 10700,1982 10702,1957 10705,1932 10708,1907 10710,1883 10713,1859 10715,1835 10718,1812 10721,1791 10723,1770 10726,1751 10729,1734 10731,1718 10734,1704 10737,1692 10739,1682 10742,1673 10747,1661 10750,1657 10763,1658 10768,1668 10774,1682 10779,1700 10782,1710 10784,1722 10787,1734 10790,1747 10792,1760 10795,1774 10798,1789 10800,1803 10803,1818 10806,1833 10808,1847 10811,1861 10813,1875 10816,1888 10819,1901 10821,1912 10824,1923 10827,1932 10832,1947 10840,1957 10845,1955 10848,1950 10853,1936 10856,1926 10859,1915 10861,1902 10864,1889 10866,1875 10869,1861 10872,1846 10874,1832 10877,1817 10880,1803 10882,1790 10885,1778 10888,1766 10890,1756 10896,1741 10901,1734 10911,1748 10917,1767 10919,1779 10922,1792 10925,1806 10927,1821 10930,1836 10933,1851 10935,1866 10938,1881 10941,1895 10943,1908 10946,1920 10949,1931 10954,1947 10957,1952 10970,1940 10975,1919 10978,1906 10980,1892 10983,1877 10986,1862 10988,1846 10991,1830 10994,1815 10996,1800 10999,1786 11002,1772 11004,1760 11007,1750 11009,1742 11012,1736 11025,1747 11028,1758 11031,1771 11033,1786 11036,1803 11039,1820 11041,1838 11044,1857 11047,1875 11049,1893 11052,1910 11055,1926 11057,1941 11060,1953 11062,1963 11065,1971 11068,1975 11076,1966 11078,1955 11081,1939 11084,1918 11086,1893 11089,1864 11092,1833 11094,1799 11097,1763 11100,1725 11102,1686 11105,1647 11107,1607 11110,1568 11113,1529 11115,1491 11118,1456 11121,1422 11123,1391 11126,1363 11129,1339 11131,1318 11134,1302 11137,1292 11147,1299 11150,1311 11153,1327 11155,1346 11158,1368 11160,1392 11163,1418 11166,1445 11168,1474 11171,1503 11174,1533 11176,1562 11179,1591 11182,1620 11184,1646 11187,1672 11190,1695 11192,1716 11195,1734 11198,1748 11200,1760 11205,1776 11219,1779 11224,1770 11232,1754 11237,1744 11245,1733 11258,1743 11261,1751 11264,1760 11269,1781 11272,1793 11274,1806 11277,1820 11280,1833 11282,1847 11285,1861 11288,1875 11290,1888 11293,1900 11296,1912 11298,1923 11301,1932 11306,1947 11314,1956 11325,1941 11327,1933 11330,1924 11333,1914 11335,1903 11341,1879 11343,1866 11346,1852 11349,1838 11351,1824 11354,1810 11356,1796 11359,1783 11362,1769 11364,1757 11370,1734 11372,1723 11375,1714 11380,1699 11383,1693 11386,1687 11394,1677 11396,1676 11407,1680 11412,1688 11415,1693 11420,1706 11425,1724 11428,1734 11431,1745 11436,1769 11439,1782 11441,1795 11444,1809 11447,1823 11449,1837 11452,1850 11454,1864 11460,1889 11462,1901 11465,1912 11468,1922 11470,1931 11476,1945 11481,1954 11494,1943 11500,1927 11505,1906 11507,1894 11510,1882 11513,1869 11515,1856 11518,1842 11521,1829 11523,1815 11526,1802 11529,1790 11531,1778 11534,1767 11537,1757 11542,1740 11547,1729 11550,1726 11563,1727 11568,1732 11576,1741 11582,1747 11590,1750 11600,1740 11603,1734 11605,1726 11608,1716 11613,1693 11616,1680 11619,1666 11621,1652 11624,1637 11627,1622 11629,1607 11632,1593 11635,1579 11637,1566 11640,1553 11643,1542 11645,1532 11648,1524 11650,1518 11658,1510 11666,1526 11669,1536 11672,1547 11674,1561 11677,1575 11680,1591 11682,1607 11685,1624 11688,1640 11690,1657 11693,1673 11696,1688 11698,1701 11701,1714 11703,1724 11706,1733 11714,1743 11722,1723 11725,1710 11727,1693 11730,1673 11733,1651 11735,1627 11738,1602 11741,1575 11743,1548 11746,1520 11748,1492 11751,1464 11754,1437 11756,1411 11759,1387 11762,1365 11764,1345 11767,1327 11770,1313 11772,1302 11778,1292 11783,1299 11786,1308 11788,1322 11791,1338 11794,1357 11796,1378 11799,1401 11801,1426 11804,1453 11807,1480 11809,1507 11812,1535 11815,1563 11817,1590 11820,1616 11823,1641 11825,1665 11828,1686 11831,1705 11833,1721 11836,1734 11839,1743 11841,1750 11852,1750 11857,1740 11862,1727 11865,1720 11868,1714 11873,1702 11878,1696 11889,1709 11892,1719 11894,1734 11897,1752 11899,1773 11902,1797 11905,1824 11907,1853 11910,1884 11913,1915 11915,1947 11918,1979 11921,2010 11923,2041 11926,2070 11929,2097 11931,2122 11934,2144 11937,2163 11939,2178 11942,2188 11947,2194 11952,2176 11955,2158 11958,2133 11960,2103 11963,2068 11966,2028 11968,1985 11971,1938 11974,1890 11976,1839 11979,1787 11982,1735 11984,1682 11987,1630 11990,1579 11992,1531 11995,1484 11997,1441 12000,1401 12003,1366 12005,1335 12008,1310 12011,1292 12013,1279 12016,1274 12024,1289 12027,1303 12029,1321 12032,1343 12035,1368 12037,1395 12040,1424 12042,1454 12045,1486 12048,1518 12050,1550 12053,1581 12056,1612 12058,1641 12061,1668 12064,1693 12066,1715 12069,1734 12072,1749 12074,1760 12080,1774 12085,1777 12093,1768 12098,1757 12103,1744 12111,1727 12127,1734 12133,1756 12135,1772 12138,1789 12140,1809 12143,1830 12146,1853 12148,1876 12151,1901 12154,1926 12156,1952 12159,1978 12162,2003 12164,2028 12167,2052 12170,2075 12172,2097 12175,2117 12178,2135 12180,2151 12183,2165 12186,2176 12188,2184 12196,2192 12204,2180 12209,2162 12212,2150 12215,2137 12217,2124 12220,2109 12223,2093 12225,2076 12228,2059 12231,2042 12233,2024 12236,2007 12238,1989 12241,1972 12244,1955 12246,1939 12249,1923 12252,1908 12254,1893 12257,1879 12260,1866 12262,1853 12265,1841 12268,1830 12270,1819 12273,1808 12278,1789 12281,1781 12286,1766 12291,1753 12297,1742 12305,1730 12318,1722 12334,1723 12347,1729 12355,1732 12360,1734 12374,1735 12387,1733 12400,1731 12403,1731 12411,1731 12416,1733 12429,1741 12434,1748 12442,1763 12448,1778 12450,1787 12456,1809 12458,1822 12461,1836 12464,1852 12466,1869 12469,1888 12472,1908 12474,1931 12477,1955 12480,1981 12482,2009 12485,2038 12487,2068 12490,2098 12493,2129 12495,2160 12498,2191 12501,2220 12503,2249 12506,2277 12509,2303 12511,2326 12514,2348 12517,2367 12519,2383 12522,2395 12525,2404 12527,2409 12532,2406 12538,2383 12540,2364 12543,2341 12546,2314 12548,2284 12551,2251 12554,2216 12556,2178 12559,2140 12562,2100 12564,2060 12567,2020 12570,1981 12572,1943 12575,1906 12578,1872 12580,1839 12583,1810 12585,1785 12588,1763 12591,1746 12593,1734 12596,1727 12604,1735 12607,1746 12609,1761 12612,1778 12615,1799 12617,1822 12620,1848 12623,1874 12625,1903 12628,1932 12630,1962 12633,1992 12636,2022 12638,2051 12641,2079 12644,2106 12646,2132 12649,2155 12652,2176 12654,2194 12657,2210 12660,2223 12662,2234 12665,2243 12668,2249 12676,2257 12686,2247 12691,2235 12697,2220 12702,2203 12705,2194 12710,2176 12713,2167 12718,2150 12723,2134 12726,2125 12731,2108 12734,2100 12739,2082 12742,2073 12744,2063 12747,2053 12750,2042 12752,2032 12755,2020 12758,2008 12760,1996 12763,1983 12766,1969 12768,1955 12771,1940 12774,1924 12776,1908 12779,1891 12781,1873 12784,1855 12787,1836 12789,1817 12792,1797 12795,1777 12797,1756 12800,1735 12803,1714 12805,1692 12808,1670 12811,1648 12813,1626 12816,1604 12819,1581 12821,1558 12824,1536 12827,1513"/>
 <text class="TextShape" transform="rotate(-44.9 1184 8422)"><tspan class="TextParagraph" font-family="Liberation Sans, sans-serif" font-size="353px" font-weight="400"><tspan class="TextPosition" x="1184" y="8422"><tspan fill="rgb(0,0,0)" stroke="none">1</tspan></tspan></tspan></text>
 <text class="TextShape" transform="rotate(-44.9 1635 8552)"><tspan class="TextParagraph" font-family="Liberation Sans, sans-serif" font-size="353px" font-weight="400"><tspan class="TextPosition" x="1635" y="8552"><tspan fill="rgb(0,0,0)" stroke="none">11</tspan></tspan></tspan></text>
 <text class="TextShape" transform="rotate(-44.9 2218 8552)"><tspan class="TextParagraph" font-family="Liberation Sans, sans-serif" font-size="353px" font-weight="400"><tspan class="TextPosition" x="2218" y="8552"><tspan fill="rgb(0,0,0)" stroke="none">21</tspan></tspan></tspan></text>
 <text class="TextShape" transform="rotate(-44.9 2801 8552)"><tspan class="TextParagraph" font-family="Liberation Sans, sans-serif" font-size="353px" font-weight="400"><tspan class="TextPosition" x="2801" y="8552"><tspan fill="rgb(0,0,0)" stroke="none">31</tspan></tspan></tspan></text>
 <text class="TextShape" transform="rotate(-44.9 3383 8552)"><tspan class="TextParagraph" font-family="Liberation Sans, sans-serif" font-size="353px" font-weight="400"><tspan class="TextPosition" x="3383" y="8552"><tspan fill="rgb(0,0,0)" stroke="none">41</tspan></tspan></tspan></text>
 <text class="TextShape" transform="rotate(-44.9 3966 8552)"><tspan class="TextParagraph" font-family="Liberation Sans, sans-serif" font-size="353px" font-weight="400"><tspan class="TextPosition" x="3966" y="8552"><tspan fill="rgb(0,0,0)" stroke="none">51</tspan></tspan></tspan></text>
 <text class="TextShape" transform="rotate(-44.9 4549 8552)"><tspan class="TextParagraph" font-family="Liberation Sans, sans-serif" font-size="353px" font-weight="400"><tspan class="TextPosition" x="4549" y="8552"><tspan fill="rgb(0,0,0)" stroke="none">61</tspan></tspan></tspan></text>
 <text class="TextShape" transform="rotate(-44.9 5131 8552)"><tspan class="TextParagraph" font-family="Liberation Sans, sans-serif" font-size="353px" font-weight="400"><tspan class="TextPosition" x="5131" y="8552"><tspan fill="rgb(0,0,0)" stroke="none">71</tspan></tspan></tspan></text>
 <text class="TextShape" transform="rotate(-44.9 5714 8552)"><tspan class="TextParagraph" font-family="Liberation Sans, sans-serif" font-size="353px" font-weight="400"><tspan class="TextPosition" x="5714" y="8552"><tspan fill="rgb(0,0,0)" stroke="none">81</tspan></tspan></tspan></text>
 <text class="TextShape" transform="rotate(-44.9 6297 8552)"><tspan class="TextParagraph" font-family="Liberation Sans, sans-serif" font-size="353px" font-weight="400"><tspan class="TextPosition" x="6297" y="8552"><tspan fill="rgb(0,0,0)" stroke="none">91</tspan></tspan></tspan></text>
 <text class="TextShape" transform="rotate(-44.9 6749 8684)"><tspan class="TextParagraph" font-family="Liberation Sans, sans-serif" font-size="353px" font-weight="400"><tspan class="TextPosition" x="6749" y="8684"><tspan fill="rgb(0,0,0)" stroke="none">101</tspan></tspan></tspan></text>
 <text class="TextShape" transform="rotate(-44.9 7331 8684)"><tspan class="TextParagraph" font-family="Liberation Sans, sans-serif" font-size="353px" font-weight="400"><tspan class="TextPosition" x="7331" y="8684"><tspan fill="rgb(0,0,0)" stroke="none">111</tspan></tspan></tspan></text>
 <text class="TextShape" transform="rotate(-44.9 7914 8684)"><tspan class="TextParagraph" font-family="Liberation Sans, sans-serif" font-size="353px" font-weight="400"><tspan class="TextPosition" x="7914" y="8684"><tspan fill="rgb(0,0,0)" stroke="none">121</tspan></tspan></tspan></text>
 <text class="TextShape" transform="rotate(-44.9 8497 8684)"><tspan class="TextParagraph" font-family="Liberation Sans, sans-serif" font-size="353px" font-weight="400"><tspan class="TextPosition" x="8497" y="8684"><tspan fill="rgb(0,0,0)" stroke="none">131</tspan></tspan></tspan></text>
 <text class="TextShape" transform="rotate(-44.9 9079 8684)"><tspan class="TextParagraph" font-family="Liberation Sans, sans-serif" font-size="353px" font-weight="400"><tspan class="TextPosition" x="9079" y="8684"><tspan fill="rgb(0,0,0)" stroke="none">141</tspan></tspan></tspan></text>
 <text class="TextShape" transform="rotate(-44.9 9662 8684)"><tspan class="TextParagraph" font-family="Liberation Sans, sans-serif" font-size="353px" font-weight="400"><tspan class="TextPosition" x="9662" y="8684"><tspan fill="rgb(0,0,0)" stroke="none">151</tspan></tspan></tspan></text>
 <text class="TextShape" transform="rotate(-44.9 10245 8684)"><tspan class="TextParagraph" font-family="Liberation Sans, sans-serif" font-size="353px" font-weight="400"><tspan class="TextPosition" x="10245" y="8684"><tspan fill="rgb(0,0,0)" stroke="none">161</tspan></tspan></tspan></text>
 <text class="TextShape" transform="rotate(-44.9 10828 8684)"><tspan class="TextParagraph" font-family="Liberation Sans, sans-serif" font-size="353px" font-weight="400"><tspan class="TextPosition" x="10828" y="8684"><tspan fill="rgb(0,0,0)" stroke="none">171</tspan></tspan></tspan></text>
 <text class="TextShape" transform="rotate(-44.9 11410 8684)"><tspan class="TextParagraph" font-family="Liberation Sans, sans-serif" font-size="353px" font-weight="400"><tspan class="TextPosition" x="11410" y="8684"><tspan fill="rgb(0,0,0)" stroke="none">181</tspan></tspan></tspan></text>
 <text class="TextShape" transform="rotate(-44.9 11992 8684)"><tspan class="TextParagraph" font-family="Liberation Sans, sans-serif" font-size="353px" font-weight="400"><tspan class="TextPosition" x="11992" y="8684"><tspan fill="rgb(0,0,0)" stroke="none">191</tspan></tspan></tspan></text>
 <text class="TextShape"><tspan class="TextParagraph" font-family="Liberation Sans, sans-serif" font-size="353px" font-weight="400"><tspan class="TextPosition" x="321" y="7936"><tspan fill="rgb(0,0,0)" stroke="none">26.2</tspan></tspan></tspan></text>
 <text class="TextShape"><tspan class="TextParagraph" font-family="Liberation Sans, sans-serif" font-size="353px" font-weight="400"><tspan class="TextPosition" x="321" y="6996"><tspan fill="rgb(0,0,0)" stroke="none">26.4</tspan></tspan></tspan></text>
 <text class="TextShape"><tspan class="TextParagraph" font-family="Liberation Sans, sans-serif" font-size="353px" font-weight="400"><tspan class="TextPosition" x="321" y="6057"><tspan fill="rgb(0,0,0)" stroke="none">26.6</tspan></tspan></tspan></text>
 <text class="TextShape"><tspan class="TextParagraph" font-family="Liberation Sans, sans-serif" font-size="353px" font-weight="400"><tspan class="TextPosition" x="321" y="5117"><tspan fill="rgb(0,0,0)" stroke="none">26.8</tspan></tspan></tspan></text>
 <text class="TextShape"><tspan class="TextParagraph" font-family="Liberation Sans, sans-serif" font-size="353px" font-weight="400"><tspan class="TextPosition" x="612" y="4178"><tspan fill="rgb(0,0,0)" stroke="none">27</tspan></tspan></tspan></text>
 <text class="TextShape"><tspan class="TextParagraph" font-family="Liberation Sans, sans-serif" font-size="353px" font-weight="400"><tspan class="TextPosition" x="321" y="3238"><tspan fill="rgb(0,0,0)" stroke="none">27.2</tspan></tspan></tspan></text>
 <text class="TextShape"><tspan class="TextParagraph" font-family="Liberation Sans, sans-serif" font-size="353px" font-weight="400"><tspan class="TextPosition" x="321" y="2299"><tspan fill="rgb(0,0,0)" stroke="none">27.4</tspan></tspan></tspan></text>
 <text class="TextShape"><tspan class="TextParagraph" font-family="Liberation Sans, sans-serif" font-size="353px" font-weight="400"><tspan class="TextPosition" x="321" y="1359"><tspan fill="rgb(0,0,0)" stroke="none">27.6</tspan></tspan></tspan></text>
 <text class="TextShape"><tspan class="TextParagraph" font-family="Liberation Sans, sans-serif" font-size="353px" font-weight="400"><tspan class="TextPosition" x="321" y="419"><tspan fill="rgb(0,0,0)" stroke="none">27.8</tspan></tspan></tspan></text>
 <path fill="none" stroke="rgb(0,69,134)" stroke-width="80" stroke-linejoin="round" d="M 13263,4499 L 14063,4499"/>
 <text class="TextShape"><tspan class="TextParagraph" font-family="Liberation Sans, sans-serif" font-size="353px" font-weight="400"><tspan class="TextPosition" x="14163" y="4618"><tspan fill="rgb(0,0,0)" stroke="none">Column D</tspan></tspan></tspan></text>
</svg>