<?xml version="1.0" encoding="UTF-8"?>
<!DOCTYPE svg PUBLIC "-//W3C//DTD SVG 1.1//EN" "http://www.w3.org/Graphics/SVG/1.1/DTD/svg11.dtd">
<svg width="511mm" height="325mm" viewBox="0 0 51100 32500" version="1.1" xmlns="http://www.w3.org/2000/svg" xmlns:xlink="http://www.w3.org/1999/xlink" stroke-width="28.222" stroke-linejoin="round" xml:space="preserve">
 <path fill="rgb(239,239,232)" stroke="none" d="M 25564,32543 L 0,32543 0,0 51128,0 51128,32543 25564,32543 Z"/>
 <path fill="none" stroke="rgb(179,179,179)" stroke-linejoin="round" d="M 25564,31893 L 1022,31893 1022,650 50106,650 50106,31893 25564,31893 Z"/>
 <path fill="none" stroke="rgb(0,191,255)" stroke-width="80" stroke-linejoin="round" d="M 1022,19476 L 1034,19508 1046,19540 1058,19572 1071,19605 1083,19639 1095,19674 1108,19710 1120,19748 1132,19788 1145,19829 1157,19872 1169,19918 1182,19966 1194,20017 1206,20072 1219,20129 1231,20189 1243,20254 1256,20322 1268,20394 1280,20470 1293,20549 1305,20630 1317,20713 1330,20795 1342,20877 1354,20956 1367,21032 1379,21104 1391,21171 1404,21231 1416,21284 1428,21328 1441,21363 1453,21388 1465,21400 1490,21386 1502,21358 1515,21313 1527,21252 1539,21176 1552,21085 1564,20981 1576,20865 1589,20738 1601,20602 1613,20458 1626,20307 1638,20150 1650,19989 1663,19825 1675,19660 1687,19494 1700,19328 1712,19165 1724,19004 1737,18849 1749,18699 1761,18556 1774,18421 1786,18295 1798,18178 1811,18069 1823,17969 1835,17878 1848,17796 1860,17724 1872,17661 1885,17608 1897,17564 1909,17530 1922,17507 1934,17494 1946,17491 1959,17498 1971,17516 1983,17545 1996,17585 2008,17636 2020,17698 2033,17771 2045,17852 2057,17940 2070,18036 2082,18137 2094,18242 2107,18350 2119,18461 2131,18572 2144,18683 2156,18792 2168,18899 2181,19002 2193,19100 2205,19192 2218,19277 2230,19353 2242,19420 2255,19476 2267,19520 2279,19554 2292,19578 2304,19593 2329,19601 2341,19596 2353,19586 2366,19573 2378,19557 2390,19539 2403,19521 2415,19503 2427,19487 2440,19473 2452,19462 2464,19456 2477,19456 2489,19462 2501,19476 2514,19498 2526,19528 2538,19565 2551,19607 2563,19655 2575,19707 2588,19763 2600,19821 2612,19880 2625,19941 2637,20001 2649,20060 2662,20118 2674,20172 2686,20223 2699,20270 2711,20311 2723,20346 2736,20374 2748,20394 2760,20405 2773,20408 2785,20402 2797,20389 2810,20369 2822,20342 2834,20309 2847,20270 2859,20225 2871,20174 2884,20119 2896,20060 2908,19997 2921,19930 2933,19860 2945,19787 2958,19712 2970,19634 2982,19556 2995,19476 3007,19395 3019,19315 3032,19235 3044,19156 3056,19079 3069,19004 3081,18932 3093,18864 3106,18800 3118,18741 3130,18688 3143,18640 3155,18600 3167,18566 3180,18541 3192,18524 3204,18517 3217,18519 3229,18532 3241,18556 3254,18592 3266,18637 3278,18691 3291,18753 3303,18820 3315,18891 3328,18965 3340,19040 3352,19115 3365,19187 3377,19257 3389,19321 3402,19379 3414,19429 3426,19469 3439,19499 3451,19515 3476,19506 3488,19476 3500,19428 3513,19363 3525,19282 3537,19186 3550,19077 3562,18956 3574,18824 3587,18682 3599,18533 3611,18376 3624,18214 3636,18048 3648,17878 3661,17707 3673,17536 3685,17365 3698,17197 3710,17032 3722,16872 3735,16719 3747,16572 3759,16433 3772,16303 3784,16183 3796,16070 3809,15968 3821,15875 3833,15793 3846,15722 3858,15663 3870,15615 3883,15580 3895,15558 3907,15549 3932,15573 3944,15607 3957,15655 3969,15720 3981,15800 3994,15896 4006,16007 4018,16131 4031,16267 4043,16411 4055,16563 4068,16722 4080,16885 4092,17051 4105,17218 4117,17384 4129,17547 4142,17707 4154,17860 4166,18005 4179,18141 4191,18266 4203,18378 4216,18475 4228,18556 4240,18620 4253,18667 4265,18699 4277,18718 4290,18725 4314,18712 4327,18695 4339,18672 4351,18646 4364,18618 4376,18590 4388,18564 4401,18541 4413,18522 4425,18510 4450,18510 4462,18527 4475,18556 4487,18599 4499,18655 4512,18721 4524,18795 4536,18876 4549,18961 4561,19049 4573,19137 4586,19223 4598,19305 4610,19382 4623,19450 4635,19509 4647,19556 4660,19589 4672,19607 4697,19585 4709,19543 4721,19476 4734,19384 4746,19269 4758,19134 4771,18982 4783,18817 4795,18640 4808,18455 4820,18266 4832,18075 4845,17885 4857,17699 4869,17521 4882,17353 4894,17198 4906,17059 4919,16940 4931,16844 4943,16773 4956,16730 4968,16719 4980,16741 4993,16795 5005,16876 5017,16983 5030,17111 5042,17258 5054,17421 5067,17595 5079,17779 5091,17968 5104,18160 5116,18351 5128,18539 5141,18719 5153,18890 5165,19046 5178,19187 5190,19307 5202,19405 5215,19476 5227,19519 5239,19534 5252,19525 5264,19493 5276,19440 5289,19368 5301,19280 5313,19178 5326,19064 5338,18940 5350,18809 5363,18672 5375,18531 5387,18390 5400,18249 5412,18111 5424,17979 5437,17855 5449,17740 5461,17636 5474,17547 5486,17470 5498,17407 5511,17355 5523,17315 5535,17286 5548,17266 5560,17257 5572,17255 5597,17277 5609,17298 5622,17326 5634,17359 5646,17397 5659,17439 5671,17485 5683,17533 5696,17584 5708,17636 5720,17690 5733,17744 5745,17799 5757,17854 5770,17908 5782,17963 5794,18017 5807,18070 5819,18122 5831,18173 5844,18222 5856,18270 5868,18315 5881,18359 5893,18399 5905,18437 5918,18472 5930,18504 5942,18532 5955,18556 5967,18577 5979,18593 5992,18606 6004,18616 6016,18623 6029,18628 6053,18629 6066,18627 6078,18623 6090,18618 6115,18605 6127,18598 6140,18590 6152,18582 6164,18574 6177,18567 6189,18561 6201,18556 6214,18552 6238,18548 6251,18548 6263,18548 6275,18549 6288,18550 6312,18554 6325,18556 6337,18558 6349,18560 6374,18564 6386,18564 6399,18565 6411,18564 6423,18563 6436,18560 6448,18556 6460,18551 6473,18544 6497,18523 6510,18509 6522,18490 6534,18468 6547,18442 6559,18411 6571,18375 6584,18333 6596,18285 6608,18231 6621,18170 6633,18102 6645,18026 6658,17942 6670,17849 6682,17747 6695,17636 6707,17516 6719,17388 6732,17253 6744,17114 6756,16973 6769,16831 6781,16690 6793,16552 6806,16419 6818,16293 6830,16176 6843,16069 6855,15973 6867,15892 6880,15826 6892,15778 6904,15750 6917,15743 6929,15759 6941,15800 6954,15867 6966,15958 6978,16070 6991,16201 7003,16347 7015,16506 7028,16676 7040,16853 7052,17035 7065,17219 7077,17402 7089,17581 7102,17754 7114,17918 7126,18071 7139,18208 7151,18328 7163,18428 7176,18505 7188,18556 7200,18580 7213,18577 7225,18551 7237,18503 7250,18437 7262,18353 7274,18255 7287,18144 7299,18024 7311,17896 7324,17764 7336,17628 7348,17492 7361,17357 7373,17227 7385,17103 7398,16988 7410,16884 7422,16793 7435,16719 7447,16661 7459,16621 7472,16597 7484,16588 7496,16593 7509,16610 7521,16640 7533,16680 7546,16731 7558,16790 7570,16857 7583,16930 7595,17009 7607,17093 7620,17181 7632,17271 7644,17362 7657,17455 7669,17546 7681,17636 7694,17724 7706,17809 7718,17891 7731,17969 7743,18044 7755,18115 7768,18181 7780,18244 7792,18302 7805,18354 7817,18402 7829,18444 7842,18481 7854,18512 7866,18536 7879,18554 7891,18565 7916,18567 7928,18556 7940,18538 7953,18513 7965,18482 7977,18445 7990,18402 8002,18356 8014,18306 8027,18253 8039,18198 8051,18141 8064,18083 8076,18025 8088,17968 8101,17911 8113,17857 8125,17805 8138,17756 8150,17711 8162,17671 8175,17636 8187,17607 8199,17584 8212,17565 8224,17552 8236,17542 8249,17537 8261,17535 8273,17536 8298,17546 8310,17553 8323,17562 8335,17573 8360,17594 8372,17605 8384,17615 8397,17624 8409,17631 8434,17640 8446,17641 8458,17640 8471,17638 8495,17631 8508,17626 8520,17621 8532,17616 8557,17606 8569,17602 8582,17600 8594,17599 8619,17602 8631,17606 8643,17613 8656,17623 8668,17636 8680,17653 8693,17672 8705,17692 8717,17714 8730,17737 8742,17759 8754,17780 8767,17800 8779,17817 8791,17831 8816,17846 8828,17846 8841,17840 8853,17828 8865,17807 8878,17779 8890,17741 8902,17694 8915,17636 8927,17568 8939,17490 8952,17403 8964,17308 8976,17208 8989,17102 9001,16993 9013,16881 9026,16768 9038,16655 9050,16543 9063,16434 9075,16329 9087,16229 9100,16135 9112,16048 9124,15970 9137,15902 9149,15845 9161,15800 9174,15769 9186,15750 9198,15744 9211,15749 9223,15764 9235,15789 9248,15823 9260,15865 9272,15915 9285,15971 9297,16033 9309,16100 9322,16171 9334,16245 9346,16321 9359,16400 9371,16480 9383,16560 9396,16640 9408,16719 9420,16795 9433,16868 9445,16938 9457,17003 9470,17062 9482,17115 9494,17161 9507,17199 9519,17228 9531,17248 9544,17256 9556,17254 9568,17239 9581,17211 9593,17168 9605,17112 9618,17039 9630,16950 9642,16843 9655,16719 9667,16575 9679,16416 9692,16244 9704,16061 9716,15869 9729,15673 9741,15474 9753,15276 9766,15081 9778,14893 9790,14713 9803,14545 9815,14392 9827,14256 9840,14140 9852,14047 9864,13980 9877,13942 9901,13962 9914,14026 9926,14122 9938,14249 9951,14402 9963,14579 9975,14775 9988,14987 10000,15212 10012,15446 10025,15686 10037,15928 10049,16169 10062,16405 10074,16633 10086,16849 10099,17051 10111,17234 10123,17395 10136,17530 10148,17636 10160,17711 10173,17756 10185,17772 10197,17762 10210,17729 10222,17673 10234,17598 10247,17506 10259,17397 10271,17276 10284,17143 10296,17002 10308,16853 10321,16700 10333,16544 10345,16388 10358,16234 10370,16082 10382,15937 10395,15800 10407,15672 10419,15555 10432,15447 10444,15348 10456,15259 10469,15179 10481,15107 10493,15044 10506,14990 10518,14944 10530,14905 10543,14875 10555,14852 10567,14836 10580,14827 10592,14825 10617,14841 10629,14859 10641,14882 10654,14911 10666,14946 10678,14985 10691,15028 10703,15074 10715,15123 10728,15175 10740,15229 10752,15283 10765,15339 10777,15394 10789,15449 10802,15503 10814,15555 10826,15605 10839,15652 10851,15695 10863,15735 10875,15770 10888,15800 10900,15824 10912,15843 10937,15861 10949,15860 10962,15852 10974,15837 10986,15815 10999,15785 11011,15748 11023,15702 11036,15647 11048,15584 11060,15513 11073,15432 11085,15342 11097,15242 11110,15132 11122,15012 11134,14882 11147,14742 11159,14592 11171,14435 11184,14273 11196,14105 11208,13935 11221,13764 11233,13593 11245,13424 11258,13258 11270,13097 11282,12942 11295,12796 11307,12659 11319,12533 11332,12420 11344,12321 11356,12238 11369,12172 11381,12125 11393,12098 11406,12090 11418,12100 11430,12128 11443,12171 11455,12229 11467,12301 11480,12385 11492,12481 11504,12587 11517,12702 11529,12825 11541,12955 11554,13091 11566,13231 11578,13375 11591,13521 11603,13668 11615,13816 11628,13962 11640,14107 11652,14249 11665,14387 11677,14522 11689,14653 11702,14780 11714,14901 11726,15017 11739,15127 11751,15230 11763,15327 11776,15416 11788,15497 11800,15569 11813,15633 11825,15687 11837,15731 11850,15765 11862,15788 11874,15800 11899,15789 11911,15769 11924,15740 11936,15702 11948,15658 11961,15608 11973,15554 11985,15495 11998,15434 12010,15371 12022,15306 12035,15242 12047,15180 12059,15119 12072,15061 12084,15008 12096,14959 12109,14917 12121,14882 12133,14855 12146,14835 12158,14822 12170,14814 12183,14812 12195,14814 12207,14819 12220,14828 12232,14839 12244,14851 12257,14863 12269,14876 12281,14888 12294,14898 12306,14905 12318,14910 12343,14907 12355,14897 12368,14882 12380,14860 12392,14832 12405,14798 12417,14759 12429,14716 12442,14669 12454,14619 12466,14566 12479,14512 12491,14456 12503,14399 12516,14343 12528,14287 12540,14232 12553,14179 12565,14128 12577,14081 12590,14037 12602,13997 12614,13962 12627,13933 12639,13909 12651,13889 12664,13874 12676,13864 12688,13857 12701,13853 12713,13853 12738,13860 12750,13866 12762,13875 12775,13885 12787,13895 12799,13907 12812,13919 12824,13931 12836,13942 12849,13953 12861,13962 12873,13971 12886,13978 12898,13983 12923,13991 12935,13994 12947,13995 12960,13996 12984,13995 12997,13993 13009,13991 13021,13988 13034,13985 13058,13978 13071,13974 13083,13970 13095,13966 13120,13958 13132,13955 13145,13951 13157,13948 13169,13945 13182,13942 13194,13940 13206,13938 13219,13937 13243,13935 13256,13936 13268,13936 13280,13938 13293,13940 13317,13946 13330,13951 13342,13956 13354,13962 13379,13977 13391,13986 13404,13994 13416,14002 13428,14011 13441,14018 13453,14025 13465,14031 13478,14036 13490,14039 13502,14041 13515,14040 13527,14038 13539,14033 13564,14014 13576,14000 13589,13983 13601,13962 13613,13938 13626,13909 13638,13878 13650,13843 13663,13805 13675,13764 13687,13721 13700,13676 13712,13628 13724,13579 13737,13529 13749,13477 13761,13424 13774,13370 13786,13316 13798,13262 13811,13207 13823,13152 13835,13098 13848,13045 13860,12992 13872,12941 13885,12892 13897,12846 13909,12803 13922,12765 13934,12731 13946,12704 13959,12682 13971,12667 13983,12660 13996,12661 14008,12670 14020,12690 14033,12719 14045,12760 14057,12812 14070,12876 14082,12954 14094,13045 14107,13149 14119,13267 14131,13395 14144,13534 14156,13680 14168,13833 14181,13991 14193,14152 14205,14315 14218,14479 14230,14642 14242,14802 14255,14957 14267,15107 14279,15250 14292,15384 14304,15507 14316,15619 14329,15717 14341,15800 14353,15867 14366,15918 14378,15954 14390,15975 14403,15983 14415,15977 14427,15958 14440,15928 14452,15887 14464,15835 14477,15773 14489,15702 14501,15623 14514,15535 14526,15441 14538,15339 14551,15232 14563,15120 14575,15003 14588,14882 14600,14758 14612,14632 14625,14504 14637,14376 14649,14249 14662,14123 14674,13999 14686,13879 14699,13763 14711,13652 14723,13548 14736,13451 14748,13362 14760,13282 14773,13212 14785,13153 14797,13105 14810,13071 14822,13050 14834,13045 14859,13077 14871,13113 14884,13159 14896,13214 14908,13277 14921,13344 14933,13416 14945,13490 14958,13564 14970,13637 14982,13708 14995,13773 15007,13833 15019,13884 15032,13926 15044,13956 15056,13974 15069,13976 15081,13962 15093,13931 15106,13883 15118,13821 15130,13745 15143,13658 15155,13561 15167,13457 15180,13345 15192,13230 15204,13111 15217,12991 15229,12871 15241,12753 15254,12639 15266,12530 15278,12428 15291,12335 15303,12252 15315,12182 15328,12125 15340,12083 15352,12056 15365,12042 15377,12041 15389,12052 15402,12074 15414,12106 15426,12147 15439,12197 15451,12254 15463,12318 15476,12388 15488,12462 15500,12540 15513,12622 15525,12705 15537,12790 15550,12876 15562,12961 15574,13045 15587,13126 15599,13205 15611,13282 15624,13356 15636,13426 15648,13493 15661,13557 15673,13617 15685,13673 15698,13725 15710,13772 15722,13815 15735,13853 15747,13886 15759,13913 15772,13935 15784,13951 15796,13961 15809,13965 15821,13962 15833,13953 15846,13938 15858,13917 15870,13890 15883,13858 15895,13822 15907,13781 15920,13736 15932,13688 15944,13637 15957,13583 15969,13527 15981,13469 15994,13410 16006,13349 16018,13288 16031,13227 16043,13165 16055,13105 16068,13045 16080,12986 16092,12928 16105,12872 16117,12818 16129,12764 16142,12712 16154,12661 16166,12612 16179,12564 16191,12517 16203,12472 16216,12428 16228,12385 16240,12344 16253,12304 16265,12265 16277,12228 16290,12192 16302,12158 16314,12125 16327,12093 16339,12063 16351,12035 16364,12010 16376,11986 16388,11966 16401,11948 16413,11934 16425,11924 16438,11917 16450,11915 16462,11917 16475,11923 16487,11935 16499,11952 16512,11974 16524,12003 16536,12037 16549,12078 16561,12125 16573,12179 16586,12239 16598,12303 16610,12371 16623,12442 16635,12514 16647,12586 16660,12657 16672,12726 16684,12793 16697,12855 16709,12912 16721,12962 16734,13005 16746,13040 16758,13065 16771,13079 16783,13081 16795,13070 16808,13045 16820,13005 16832,12952 16845,12888 16857,12815 16869,12735 16882,12650 16894,12563 16906,12475 16919,12388 16931,12305 16943,12227 16956,12157 16968,12097 16980,12049 16993,12015 17005,11996 17017,11996 17030,12016 17042,12058 17054,12125 17067,12217 17079,12332 17091,12468 17104,12621 17116,12788 17128,12966 17141,13152 17153,13343 17165,13535 17178,13726 17190,13913 17202,14092 17215,14260 17227,14415 17239,14553 17252,14671 17264,14766 17276,14835 17289,14875 17301,14882 17313,14855 17326,14797 17338,14709 17350,14597 17363,14462 17375,14310 17387,14142 17400,13962 17412,13774 17424,13581 17437,13387 17449,13195 17461,13007 17474,12828 17486,12662 17498,12510 17511,12377 17523,12266 17535,12181 17548,12125 17560,12100 17572,12104 17585,12134 17597,12189 17609,12264 17622,12357 17634,12466 17646,12586 17659,12717 17671,12854 17683,12994 17696,13136 17708,13276 17720,13411 17733,13538 17745,13655 17757,13759 17770,13847 17782,13915 17794,13962 17807,13985 17819,13986 17831,13965 17844,13925 17856,13868 17868,13794 17881,13707 17893,13608 17905,13499 17918,13381 17930,13256 17942,13126 17955,12993 17967,12859 17979,12725 17992,12594 18004,12466 18016,12344 18029,12230 18041,12125 18053,12031 18066,11947 18078,11875 18090,11813 18103,11762 18115,11721 18127,11690 18140,11669 18152,11657 18164,11655 18177,11663 18189,11680 18201,11706 18214,11740 18226,11784 18238,11836 18251,11896 18263,11964 18275,12041 18288,12125 18300,12216 18312,12315 18325,12418 18337,12527 18349,12638 18362,12751 18374,12866 18386,12981 18399,13094 18411,13206 18423,13314 18436,13418 18448,13516 18460,13608 18473,13693 18485,13768 18497,13834 18510,13889 18522,13932 18534,13962 18547,13979 18559,13982 18571,13973 18584,13953 18596,13924 18608,13886 18621,13840 18633,13788 18645,13730 18658,13668 18670,13603 18682,13535 18695,13466 18707,13397 18719,13330 18732,13264 18744,13202 18756,13144 18769,13091 18781,13045 18793,13006 18806,12974 18818,12948 18830,12929 18843,12915 18855,12907 18867,12903 18880,12903 18904,12913 18917,12923 18929,12934 18941,12948 18954,12962 18966,12977 18978,12992 18991,13007 19003,13021 19015,13034 19028,13045 19040,13053 19052,13060 19065,13065 19089,13069 19102,13069 19114,13068 19126,13066 19139,13064 19163,13057 19176,13054 19188,13050 19200,13047 19225,13042 19237,13041 19250,13041 19262,13042 19274,13045 19287,13049 19299,13054 19311,13061 19324,13068 19336,13076 19348,13084 19361,13091 19373,13099 19385,13105 19410,13115 19422,13118 19435,13119 19447,13117 19459,13113 19484,13096 19496,13083 19509,13066 19521,13045 19533,13019 19546,12990 19558,12957 19570,12920 19583,12881 19595,12839 19607,12794 19620,12747 19632,12698 19644,12648 19657,12596 19669,12544 19681,12490 19694,12437 19706,12383 19718,12330 19731,12277 19743,12225 19755,12174 19768,12125 19780,12077 19792,12032 19805,11990 19817,11950 19829,11914 19842,11883 19854,11856 19866,11833 19879,11817 19891,11806 19903,11802 19928,11814 19940,11831 19953,11857 19965,11891 19977,11935 19990,11988 20002,12051 20014,12125 20027,12209 20039,12304 20051,12408 20064,12521 20076,12641 20088,12769 20101,12904 20113,13043 20125,13188 20138,13337 20150,13489 20162,13644 20175,13800 20187,13958 20199,14116 20212,14273 20224,14429 20236,14583 20249,14734 20261,14882 20273,15025 20286,15164 20298,15296 20310,15421 20323,15539 20335,15648 20347,15748 20360,15837 20372,15915 20384,15982 20397,16035 20409,16075 20421,16100 20446,16104 20458,16081 20471,16040 20483,15980 20495,15900 20508,15800 20520,15679 20532,15539 20545,15382 20557,15209 20569,15024 20582,14828 20594,14623 20606,14412 20619,14196 20631,13978 20643,13759 20656,13542 20668,13330 20680,13123 20692,12924 20705,12735 20717,12559 20729,12397 20742,12252 20754,12125 20766,12018 20779,11931 20791,11861 20803,11809 20816,11771 20828,11748 20840,11737 20853,11737 20865,11748 20877,11766 20890,11792 20902,11824 20914,11860 20927,11899 20939,11941 20951,11982 20964,12023 20976,12061 20988,12095 21001,12125 21013,12148 21025,12166 21038,12178 21050,12186 21062,12190 21087,12187 21099,12181 21112,12174 21124,12165 21136,12155 21149,12146 21161,12136 21173,12127 21186,12120 21210,12112 21223,12113 21235,12117 21247,12125 21260,12138 21272,12155 21284,12177 21297,12203 21309,12233 21321,12267 21334,12304 21346,12345 21358,12390 21371,12437 21383,12488 21395,12541 21408,12597 21420,12655 21432,12715 21445,12778 21457,12842 21469,12908 21482,12976 21494,13045 21506,13114 21519,13185 21531,13256 21543,13326 21556,13395 21568,13463 21580,13529 21593,13592 21605,13652 21617,13709 21630,13761 21642,13809 21654,13852 21667,13889 21679,13920 21691,13944 21704,13961 21716,13970 21728,13970 21741,13962 21753,13945 21765,13919 21778,13886 21790,13846 21802,13801 21815,13750 21827,13696 21839,13639 21852,13579 21864,13519 21876,13458 21889,13397 21901,13338 21913,13282 21926,13229 21938,13180 21950,13136 21963,13098 21975,13068 21987,13045 22000,13030 22012,13023 22024,13023 22049,13039 22061,13052 22074,13069 22086,13087 22098,13105 22111,13123 22123,13139 22135,13153 22148,13163 22160,13168 22172,13168 22185,13161 22197,13146 22209,13122 22222,13089 22234,13045 22246,12989 22259,12922 22271,12846 22283,12762 22296,12670 22308,12572 22320,12470 22333,12363 22345,12254 22357,12143 22370,12032 22382,11921 22394,11813 22407,11708 22419,11606 22431,11511 22444,11422 22456,11340 22468,11268 22481,11205 22493,11153 22505,11112 22518,11080 22530,11057 22542,11041 22567,11031 22579,11035 22592,11043 22604,11055 22616,11070 22629,11087 22641,11105 22653,11125 22666,11143 22678,11161 22690,11177 22703,11190 22715,11200 22727,11205 22752,11201 22764,11194 22777,11183 22789,11170 22801,11156 22814,11141 22826,11126 22838,11111 22851,11098 22863,11087 22888,11074 22900,11074 22912,11079 22925,11090 22937,11107 22949,11132 22962,11164 22974,11205 22986,11255 22999,11314 23011,11381 23023,11456 23036,11536 23048,11623 23060,11715 23073,11811 23085,11911 23097,12014 23110,12118 23122,12225 23134,12332 23147,12440 23159,12546 23171,12652 23184,12755 23196,12855 23208,12952 23221,13045 23233,13132 23245,13214 23258,13290 23270,13359 23282,13421 23295,13474 23307,13520 23319,13555 23332,13581 23344,13597 23356,13601 23369,13594 23381,13575 23393,13542 23406,13497 23418,13437 23430,13362 23443,13273 23455,13167 23467,13045 23480,12906 23492,12752 23504,12587 23517,12411 23529,12228 23541,12041 23554,11851 23566,11661 23578,11474 23591,11292 23603,11117 23615,10952 23628,10800 23640,10662 23652,10542 23665,10442 23677,10364 23689,10310 23702,10284 23714,10287 23726,10322 23739,10385 23751,10475 23763,10587 23776,10720 23788,10869 23800,11033 23813,11207 23825,11389 23837,11576 23850,11765 23862,11952 23874,12135 23887,12311 23899,12477 23911,12629 23924,12765 23936,12882 23948,12976 23961,13045 23973,13086 23985,13100 23998,13090 24010,13058 24022,13006 24035,12936 24047,12849 24059,12749 24072,12637 24084,12514 24096,12384 24109,12249 24121,12109 24133,11968 24146,11828 24158,11690 24170,11557 24183,11430 24195,11312 24207,11205 24220,11111 24232,11029 24244,10959 24257,10900 24269,10853 24281,10817 24294,10791 24306,10775 24318,10768 24331,10771 24343,10782 24355,10802 24368,10829 24380,10864 24392,10906 24405,10954 24417,11009 24429,11069 24442,11135 24454,11205 24466,11280 24479,11358 24491,11439 24503,11520 24516,11602 24528,11683 24540,11762 24553,11839 24565,11910 24577,11977 24590,12038 24602,12091 24614,12136 24627,12171 24639,12196 24651,12209 24664,12210 24676,12197 24688,12169 24701,12125 24713,12064 24725,11989 24738,11901 24750,11801 24762,11693 24775,11577 24787,11456 24799,11331 24812,11205 24824,11080 24836,10957 24849,10839 24861,10727 24873,10624 24886,10530 24898,10449 24910,10383 24923,10332 24935,10300 24947,10287 24960,10296 24972,10325 24984,10372 24997,10436 25009,10514 25021,10605 25034,10706 25046,10815 25058,10932 25071,11054 25083,11178 25095,11304 25108,11429 25120,11552 25132,11670 25145,11781 25157,11884 25169,11977 25182,12058 25194,12125 25206,12176 25219,12212 25231,12234 25256,12239 25268,12223 25280,12195 25293,12158 25305,12111 25317,12056 25330,11993 25342,11922 25354,11846 25367,11764 25379,11678 25391,11587 25404,11494 25416,11399 25428,11302 25441,11205 25453,11108 25465,11012 25478,10918 25490,10826 25502,10738 25515,10653 25527,10573 25539,10498 25552,10430 25564,10368 25575,10314 25588,10268 25600,10231 25612,10204 25625,10188 25637,10182 25649,10189 25662,10208 25674,10241 25686,10287 25699,10348 25711,10423 25723,10509 25736,10604 25748,10708 25760,10819 25773,10934 25785,11053 25797,11173 25810,11293 25822,11412 25834,11527 25847,11637 25859,11740 25871,11835 25884,11919 25896,11992 25908,12052 25921,12097 25933,12125 25945,12135 25970,12105 25982,12066 25995,12014 26007,11949 26019,11871 26032,11784 26044,11686 26056,11580 26069,11466 26081,11347 26093,11221 26106,11092 26118,10959 26130,10825 26143,10689 26155,10554 26167,10419 26180,10287 26192,10159 26204,10034 26217,9914 26229,9801 26241,9693 26254,9593 26266,9500 26278,9417 26291,9342 26303,9278 26315,9225 26328,9184 26340,9155 26352,9140 26365,9138 26377,9151 26389,9180 26402,9225 26414,9288 26426,9368 26439,9466 26451,9580 26463,9709 26476,9851 26488,10003 26500,10163 26513,10330 26525,10500 26537,10673 26550,10846 26562,11017 26574,11183 26587,11344 26599,11497 26611,11639 26624,11769 26636,11884 26648,11984 26661,12065 26673,12125 26685,12163 26698,12181 26710,12180 26722,12162 26735,12130 26747,12085 26759,12029 26772,11964 26784,11892 26796,11816 26809,11736 26821,11655 26833,11575 26846,11498 26858,11426 26870,11360 26883,11303 26895,11257 26907,11224 26920,11205 26932,11202 26944,11214 26957,11239 26969,11276 26981,11323 26994,11379 27006,11441 27018,11508 27031,11579 27043,11652 27055,11725 27068,11797 27080,11865 27092,11929 27105,11987 27117,12037 27129,12077 27142,12106 27154,12123 27166,12125 27191,12083 27203,12041 27216,11986 27228,11919 27240,11842 27253,11756 27265,11661 27277,11559 27290,11451 27302,11339 27314,11222 27327,11103 27339,10982 27351,10861 27364,10741 27376,10622 27388,10506 27401,10394 27413,10287 27425,10187 27438,10092 27450,10003 27462,9921 27475,9844 27487,9774 27499,9709 27512,9650 27524,9596 27536,9549 27549,9507 27561,9470 27573,9439 27586,9413 27598,9392 27610,9377 27623,9367 27635,9362 27647,9362 27660,9368 27672,9378 27684,9392 27697,9412 27709,9436 27721,9464 27734,9496 27746,9532 27758,9572 27771,9616 27783,9663 27795,9713 27808,9767 27820,9823 27832,9882 27845,9944 27857,10009 27869,10075 27882,10144 27894,10215 27906,10287 27919,10361 27931,10437 27943,10512 27956,10587 27968,10661 27980,10734 27993,10804 28005,10871 28017,10935 28030,10994 28042,11048 28054,11097 28067,11139 28079,11175 28091,11203 28104,11222 28116,11233 28128,11234 28153,11205 28165,11174 28178,11133 28190,11083 28202,11025 28215,10962 28227,10895 28239,10824 28252,10752 28264,10680 28276,10609 28289,10541 28301,10477 28313,10419 28326,10368 28338,10325 28350,10292 28363,10270 28375,10261 28387,10266 28400,10287 28412,10325 28424,10377 28437,10441 28449,10515 28461,10598 28474,10686 28486,10777 28498,10869 28511,10959 28523,11046 28535,11127 28548,11200 28560,11262 28572,11311 28585,11344 28597,11361 28609,11357 28622,11332 28634,11282 28646,11205 28659,11100 28671,10970 28683,10818 28696,10648 28708,10464 28720,10269 28733,10067 28745,9861 28757,9655 28770,9454 28782,9259 28794,9076 28807,8908 28819,8758 28831,8630 28844,8528 28856,8455 28868,8416 28881,8412 28893,8450 28905,8530 28918,8649 28930,8802 28942,8986 28955,9194 28967,9423 28979,9668 28992,9923 29004,10185 29016,10449 29029,10709 29041,10961 29053,11200 29066,11422 29078,11622 29090,11795 29103,11937 29115,12042 29127,12106 29140,12125 29152,12095 29164,12019 29177,11902 29189,11750 29201,11567 29214,11358 29226,11128 29238,10882 29251,10625 29263,10361 29275,10096 29288,9834 29300,9580 29312,9340 29325,9118 29337,8919 29349,8747 29362,8609 29374,8508 29386,8450 29399,8437 29411,8468 29423,8537 29436,8640 29448,8772 29460,8929 29473,9107 29485,9300 29497,9505 29510,9716 29522,9929 29534,10141 29547,10345 29559,10538 29571,10715 29584,10872 29596,11004 29608,11107 29621,11175 29633,11205 29645,11194 29658,11143 29670,11058 29682,10943 29695,10802 29707,10639 29719,10459 29732,10265 29744,10062 29756,9855 29769,9646 29781,9442 29793,9246 29806,9061 29818,8893 29830,8746 29843,8624 29855,8531 29867,8472 29880,8450 29892,8468 29904,8525 29917,8615 29929,8734 29941,8878 29954,9044 29966,9226 29978,9420 29991,9623 30003,9830 30015,10037 30028,10240 30040,10434 30052,10616 30065,10781 30077,10925 30089,11043 30102,11132 30114,11188 30126,11205 30139,11182 30151,11120 30163,11024 30176,10896 30188,10741 30200,10561 30213,10361 30225,10144 30237,9914 30250,9674 30262,9428 30274,9179 30287,8932 30299,8689 30311,8454 30324,8231 30336,8024 30348,7835 30361,7670 30373,7530 30385,7419 30398,7336 30410,7280 30422,7247 30435,7236 30447,7246 30459,7274 30472,7319 30484,7378 30496,7450 30508,7532 30521,7624 30533,7723 30545,7826 30558,7933 30570,8042 30582,8149 30595,8254 30607,8355 30619,8450 30632,8536 30644,8616 30656,8688 30669,8753 30681,8813 30693,8867 30706,8916 30718,8961 30730,9002 30743,9040 30755,9076 30767,9109 30780,9141 30792,9172 30804,9202 30817,9233 30829,9264 30841,9296 30854,9331 30866,9368 30878,9407 30891,9449 30903,9493 30915,9540 30928,9588 30940,9637 30952,9687 30965,9738 30977,9790 30989,9841 31002,9892 31014,9943 31026,9992 31039,10041 31051,10087 31063,10132 31076,10175 31088,10215 31100,10253 31113,10287 31125,10318 31137,10346 31150,10370 31162,10391 31174,10408 31187,10422 31199,10433 31211,10440 31224,10445 31236,10446 31248,10444 31261,10438 31273,10430 31285,10419 31298,10404 31310,10387 31322,10366 31335,10343 31347,10317 31359,10287 31372,10255 31384,10220 31396,10183 31409,10144 31421,10102 31433,10058 31446,10013 31458,9967 31470,9919 31483,9870 31495,9820 31507,9770 31520,9719 31532,9668 31544,9617 31557,9566 31569,9515 31581,9465 31594,9416 31606,9368 31618,9320 31631,9275 31643,9232 31655,9192 31668,9155 31680,9122 31692,9093 31705,9069 31717,9051 31729,9039 31754,9035 31766,9044 31779,9061 31791,9087 31803,9123 31816,9168 31828,9223 31840,9290 31853,9368 31865,9457 31877,9557 31890,9665 31902,9780 31914,9901 31927,10025 31939,10151 31951,10277 31964,10402 31976,10524 31988,10641 32001,10752 32013,10854 32025,10947 32038,11028 32050,11097 32062,11150 32075,11187 32087,11206 32099,11205 32112,11183 32124,11142 32136,11084 32149,11009 32161,10922 32173,10823 32186,10715 32198,10599 32210,10478 32223,10354 32235,10228 32247,10103 32260,9981 32272,9863 32284,9752 32297,9649 32309,9558 32321,9479 32334,9415 32346,9368 32358,9338 32371,9326 32383,9330 32395,9348 32408,9378 32420,9420 32432,9470 32445,9529 32457,9594 32469,9664 32482,9737 32494,9812 32506,9887 32519,9961 32531,10032 32543,10098 32556,10158 32568,10211 32580,10254 32593,10287 32605,10308 32617,10318 32630,10316 32642,10305 32654,10285 32667,10255 32679,10219 32691,10175 32704,10124 32716,10069 32728,10008 32741,9943 32753,9875 32765,9804 32778,9732 32790,9658 32802,9584 32815,9511 32827,9438 32839,9368 32852,9299 32864,9234 32876,9171 32889,9110 32901,9052 32913,8996 32926,8943 32938,8892 32950,8843 32963,8796 32975,8752 32987,8710 33000,8670 33012,8633 33024,8597 33037,8564 33049,8532 33061,8503 33074,8475 33086,8450 33098,8426 33111,8404 33123,8385 33135,8367 33148,8352 33160,8339 33172,8329 33185,8321 33197,8315 33222,8312 33234,8315 33246,8321 33259,8330 33271,8341 33283,8356 33296,8375 33308,8396 33320,8421 33333,8450 33345,8482 33357,8517 33370,8556 33382,8597 33394,8640 33407,8685 33419,8733 33431,8781 33444,8831 33456,8882 33468,8933 33481,8985 33493,9036 33505,9087 33518,9137 33530,9187 33542,9234 33555,9281 33567,9325 33579,9368 33592,9407 33604,9444 33616,9478 33629,9509 33641,9536 33653,9560 33666,9579 33678,9594 33690,9605 33703,9612 33715,9613 33740,9600 33752,9586 33764,9565 33777,9539 33789,9506 33801,9467 33814,9421 33826,9368 33838,9307 33851,9241 33863,9171 33875,9096 33888,9020 33900,8942 33912,8865 33925,8789 33937,8716 33949,8647 33962,8583 33974,8526 33986,8476 33999,8435 34011,8405 34023,8386 34036,8380 34048,8387 34060,8410 34073,8450 34085,8506 34097,8579 34110,8665 34122,8762 34134,8870 34147,8985 34159,9106 34171,9230 34184,9357 34196,9483 34208,9606 34221,9726 34233,9839 34245,9944 34258,10039 34270,10121 34282,10189 34295,10241 34307,10274 34319,10287 34332,10279 34344,10250 34356,10203 34369,10139 34381,10061 34393,9970 34406,9868 34418,9758 34430,9641 34443,9518 34455,9393 34467,9267 34480,9142 34492,9019 34504,8901 34517,8790 34529,8687 34541,8595 34554,8515 34566,8450 34578,8400 34591,8366 34603,8346 34615,8340 34640,8365 34652,8395 34665,8434 34677,8483 34689,8540 34702,8604 34714,8675 34726,8751 34739,8832 34751,8917 34763,9005 34776,9095 34788,9186 34800,9277 34813,9368 34825,9457 34837,9544 34850,9629 34862,9711 34874,9790 34887,9865 34899,9936 34911,10002 34924,10063 34936,10120 34948,10170 34961,10214 34973,10251 34985,10281 34998,10303 35010,10318 35022,10324 35035,10321 35047,10309 35059,10287 35072,10256 35084,10215 35096,10167 35109,10112 35121,10052 35133,9988 35146,9921 35158,9853 35170,9785 35183,9717 35195,9652 35207,9590 35220,9533 35232,9481 35244,9437 35257,9402 35269,9376 35281,9360 35294,9357 35306,9368 35318,9392 35331,9429 35343,9477 35355,9535 35368,9600 35380,9671 35392,9745 35405,9823 35417,9900 35429,9977 35442,10050 35454,10119 35466,10181 35479,10235 35491,10279 35503,10311 35516,10330 35540,10320 35553,10287 35565,10235 35577,10164 35590,10078 35602,9978 35614,9867 35627,9747 35639,9621 35651,9490 35664,9358 35676,9226 35688,9097 35701,8973 35713,8856 35725,8750 35738,8656 35750,8576 35762,8513 35775,8470 35787,8448 35799,8450 35812,8477 35824,8528 35836,8600 35849,8689 35861,8794 35873,8911 35886,9037 35898,9170 35910,9308 35923,9446 35935,9583 35947,9716 35960,9841 35972,9957 35984,10060 35997,10148 36009,10217 36021,10265 36034,10289 36058,10257 36071,10199 36083,10118 36095,10014 36108,9892 36120,9753 36132,9601 36145,9437 36157,9264 36169,9085 36182,8903 36194,8720 36206,8538 36219,8361 36231,8190 36243,8029 36256,7880 36268,7745 36280,7628 36293,7530 36305,7454 36317,7399 36330,7363 36342,7346 36354,7345 36367,7360 36379,7390 36391,7432 36404,7486 36416,7550 36428,7622 36441,7702 36453,7789 36465,7880 36478,7974 36490,8070 36502,8168 36515,8264 36527,8359 36539,8450 36552,8536 36564,8619 36576,8696 36589,8769 36601,8838 36613,8902 36626,8961 36638,9017 36650,9068 36663,9115 36675,9158 36687,9197 36700,9232 36712,9262 36724,9289 36737,9312 36749,9332 36761,9347 36774,9359 36786,9368 36798,9372 36811,9374 36823,9373 36835,9370 36848,9364 36860,9358 36885,9343 36897,9335 36909,9327 36922,9320 36934,9315 36946,9311 36959,9309 36971,9310 36983,9314 36996,9321 37008,9332 37020,9347 37033,9368 37045,9393 37057,9423 37070,9457 37082,9495 37094,9537 37107,9582 37119,9629 37131,9679 37144,9730 37156,9782 37168,9836 37181,9890 37193,9944 37205,9998 37218,10050 37230,10102 37242,10152 37255,10200 37267,10245 37279,10287 37292,10326 37304,10362 37316,10394 37329,10422 37341,10446 37353,10467 37366,10483 37378,10496 37390,10504 37403,10508 37415,10507 37427,10502 37440,10493 37452,10478 37464,10459 37477,10435 37489,10406 37501,10372 37514,10332 37526,10287 37538,10237 37551,10182 37563,10124 37575,10063 37588,9999 37600,9934 37612,9869 37625,9805 37637,9741 37649,9680 37662,9622 37674,9567 37686,9517 37699,9473 37711,9434 37723,9403 37736,9380 37748,9366 37760,9362 37785,9384 37797,9412 37810,9448 37822,9491 37834,9542 37847,9598 37859,9658 37871,9721 37884,9786 37896,9852 37908,9917 37921,9981 37933,10041 37945,10098 37958,10150 37970,10195 37982,10232 37995,10261 38007,10280 38019,10287 38044,10267 38056,10239 38069,10200 38081,10151 38093,10092 38106,10023 38118,9945 38130,9858 38143,9763 38155,9660 38167,9549 38180,9431 38192,9307 38204,9177 38217,9041 38229,8900 38241,8754 38254,8604 38266,8450 38278,8292 38291,8133 38303,7973 38315,7814 38328,7658 38340,7505 38352,7358 38365,7218 38377,7086 38389,6964 38402,6853 38414,6755 38426,6672 38439,6604 38451,6553 38463,6521 38476,6509 38488,6519 38500,6553 38513,6610 38525,6693 38537,6800 38550,6926 38562,7070 38574,7229 38587,7399 38599,7577 38611,7762 38624,7949 38636,8136 38648,8321 38661,8499 38673,8669 38685,8827 38698,8970 38710,9096 38722,9202 38735,9284 38747,9341 38759,9368 38772,9363 38784,9330 38796,9270 38809,9185 38821,9078 38833,8953 38846,8810 38858,8654 38870,8486 38883,8309 38895,8126 38907,7939 38920,7750 38932,7563 38944,7380 38957,7203 38969,7035 38981,6878 38994,6736 39006,6610 39018,6503 39031,6414 39043,6342 39055,6286 39068,6244 39080,6216 39092,6200 39105,6196 39117,6201 39129,6216 39142,6239 39154,6268 39166,6303 39179,6343 39191,6385 39203,6430 39216,6477 39228,6523 39240,6568 39253,6610 39265,6650 39277,6686 39290,6721 39302,6753 39314,6785 39327,6816 39339,6847 39351,6879 39364,6912 39376,6947 39388,6985 39401,7025 39413,7070 39425,7118 39438,7171 39450,7230 39462,7294 39475,7366 39487,7444 39499,7530 39512,7624 39524,7725 39536,7833 39549,7944 39561,8060 39573,8177 39586,8296 39598,8414 39610,8531 39623,8645 39635,8755 39647,8860 39660,8959 39672,9050 39684,9132 39697,9204 39709,9265 39721,9313 39734,9348 39746,9368 39758,9371 39783,9337 39795,9302 39808,9257 39820,9203 39832,9143 39845,9077 39857,9008 39869,8936 39882,8864 39894,8794 39906,8725 39919,8661 39931,8602 39943,8551 39956,8509 39968,8476 39980,8456 39993,8450 40005,8458 40017,8479 40030,8512 40042,8556 40054,8609 40067,8668 40079,8733 40091,8802 40104,8874 40116,8946 40128,9018 40141,9087 40153,9153 40165,9213 40178,9265 40190,9309 40202,9343 40215,9365 40227,9374 40239,9368 40252,9345 40264,9307 40276,9256 40289,9191 40301,9116 40313,9030 40325,8936 40338,8835 40350,8727 40362,8615 40375,8500 40387,8382 40399,8264 40412,8147 40424,8031 40436,7919 40449,7812 40461,7710 40473,7616 40486,7530 40498,7454 40510,7388 40523,7331 40535,7283 40547,7244 40560,7213 40572,7191 40584,7177 40597,7170 40621,7179 40634,7194 40646,7216 40658,7244 40671,7278 40683,7318 40695,7363 40708,7414 40720,7470 40732,7530 40745,7595 40757,7663 40769,7733 40782,7806 40794,7879 40806,7952 40819,8024 40831,8094 40843,8161 40856,8224 40868,8283 40880,8336 40893,8383 40905,8422 40917,8453 40930,8474 40942,8486 40954,8486 40967,8474 40979,8450 40991,8412 41004,8361 41016,8299 41028,8227 41041,8145 41053,8056 41065,7959 41078,7857 41090,7751 41102,7641 41115,7528 41127,7415 41139,7302 41152,7190 41164,7081 41176,6975 41189,6874 41201,6778 41213,6690 41226,6610 41238,6539 41250,6478 41263,6425 41275,6380 41287,6344 41300,6316 41312,6296 41324,6283 41337,6277 41349,6278 41361,6286 41374,6300 41386,6321 41398,6347 41411,6378 41423,6415 41435,6457 41448,6504 41460,6555 41472,6610 41485,6669 41497,6732 41509,6796 41522,6863 41534,6930 41546,6997 41559,7064 41571,7129 41583,7192 41596,7252 41608,7309 41620,7361 41633,7408 41645,7450 41657,7484 41670,7511 41682,7530 41694,7540 41707,7540 41719,7530 41731,7509 41744,7478 41756,7438 41768,7391 41781,7337 41793,7279 41805,7216 41818,7151 41830,7084 41842,7018 41855,6952 41867,6889 41879,6829 41892,6774 41904,6724 41916,6682 41929,6649 41941,6625 41953,6611 41966,6610 41978,6622 41990,6646 42003,6680 42015,6723 42027,6774 42040,6832 42052,6894 42064,6960 42077,7029 42089,7098 42101,7166 42114,7233 42126,7296 42138,7355 42151,7407 42163,7452 42175,7488 42188,7514 42200,7529 42225,7517 42237,7492 42249,7455 42262,7409 42274,7354 42286,7293 42299,7226 42311,7156 42323,7085 42336,7012 42348,6941 42360,6873 42373,6809 42385,6751 42397,6700 42410,6658 42422,6626 42434,6607 42447,6601 42459,6610 42471,6636 42484,6676 42496,6728 42508,6791 42521,6863 42533,6941 42545,7023 42558,7107 42570,7191 42582,7274 42595,7352 42607,7424 42619,7488 42632,7541 42644,7582 42656,7609 42669,7619 42681,7611 42693,7582 42706,7530 42718,7454 42730,7356 42743,7238 42755,7103 42767,6954 42780,6793 42792,6623 42804,6447 42817,6266 42829,6084 42841,5904 42854,5728 42866,5558 42878,5397 42891,5248 42903,5114 42915,4996 42928,4899 42940,4823 42952,4773 42965,4749 42989,4775 43002,4821 43014,4885 43026,4966 43039,5061 43051,5169 43063,5286 43076,5411 43088,5542 43100,5677 43113,5812 43125,5947 43137,6078 43150,6204 43162,6322 43174,6431 43187,6528 43199,6610 43211,6677 43224,6729 43236,6767 43248,6793 43261,6808 43273,6813 43285,6810 43298,6800 43310,6784 43322,6763 43335,6740 43347,6715 43359,6689 43372,6665 43384,6642 43396,6623 43409,6609 43421,6602 43446,6610 43458,6629 43470,6656 43483,6692 43495,6735 43507,6784 43520,6838 43532,6896 43544,6956 43557,7019 43569,7082 43581,7145 43594,7207 43606,7267 43618,7323 43631,7374 43643,7421 43655,7460 43668,7492 43680,7516 43692,7530 43705,7534 43717,7527 43729,7512 43742,7488 43754,7457 43766,7419 43779,7374 43791,7325 43803,7271 43816,7214 43828,7154 43840,7091 43853,7027 43865,6963 43877,6899 43890,6836 43902,6775 43914,6716 43927,6661 43939,6610 43951,6564 43964,6523 43976,6486 43988,6455 44001,6428 44013,6406 44025,6390 44038,6378 44050,6370 44062,6368 44087,6378 44099,6390 44112,6407 44124,6429 44136,6456 44149,6487 44161,6524 44173,6565 44186,6610 44198,6661 44210,6715 44223,6773 44235,6833 44247,6895 44260,6958 44272,7021 44284,7084 44297,7145 44309,7205 44321,7262 44334,7315 44346,7365 44358,7409 44371,7448 44383,7480 44395,7505 44408,7522 44420,7531 44432,7530 44445,7519 44457,7499 44469,7471 44482,7435 44494,7393 44506,7346 44519,7293 44531,7237 44543,7178 44556,7118 44568,7056 44580,6995 44593,6934 44605,6875 44617,6818 44630,6766 44642,6718 44654,6675 44667,6639 44679,6610 44691,6589 44704,6576 44716,6569 44728,6567 44741,6571 44753,6578 44765,6589 44778,6601 44790,6615 44802,6630 44815,6644 44827,6656 44839,6667 44852,6675 44864,6679 44876,6678 44889,6671 44901,6659 44913,6638 44926,6610 44938,6573 44950,6529 44963,6477 44975,6420 44987,6359 45000,6294 45012,6227 45024,6159 45037,6092 45049,6026 45061,5962 45074,5902 45086,5847 45098,5798 45111,5756 45123,5722 45135,5697 45148,5684 45172,5692 45185,5717 45197,5754 45209,5801 45222,5858 45234,5921 45246,5991 45259,6064 45271,6140 45283,6216 45296,6291 45308,6363 45320,6431 45333,6492 45345,6546 45357,6591 45370,6624 45382,6644 45394,6649 45407,6639 45419,6610 45431,6563 45444,6498 45456,6417 45468,6324 45481,6219 45493,6106 45505,5985 45518,5860 45530,5733 45542,5605 45555,5478 45567,5356 45579,5240 45592,5131 45604,5033 45616,4948 45629,4877 45641,4823 45653,4787 45666,4773 45690,4810 45703,4858 45715,4922 45727,5002 45740,5095 45752,5199 45764,5311 45777,5431 45789,5555 45801,5682 45814,5809 45826,5935 45838,6058 45851,6176 45863,6286 45875,6386 45888,6475 45900,6550 45912,6610 45925,6653 45937,6680 45949,6693 45962,6695 45974,6686 45986,6669 45999,6645 46011,6617 46023,6586 46036,6555 46048,6524 46060,6497 46073,6475 46085,6459 46097,6452 46110,6455 46122,6470 46134,6500 46147,6546 46159,6610 46171,6693 46184,6793 46196,6908 46208,7034 46221,7170 46233,7311 46245,7457 46258,7603 46270,7748 46282,7888 46295,8021 46307,8144 46319,8254 46332,8350 46344,8427 46356,8484 46369,8517 46393,8503 46406,8450 46418,8364 46430,8247 46443,8103 46455,7934 46467,7746 46480,7540 46492,7321 46504,7091 46517,6854 46529,6614 46541,6374 46554,6137 46566,5907 46578,5687 46591,5481 46603,5292 46615,5123 46628,4978 46640,4860 46652,4773 46665,4718 46677,4696 46689,4701 46702,4733 46714,4789 46726,4865 46739,4959 46751,5068 46763,5190 46776,5322 46788,5462 46800,5606 46813,5752 46825,5898 46837,6040 46850,6177 46862,6305 46874,6421 46887,6524 46899,6610 46911,6678 46924,6728 46936,6762 46948,6782 46961,6790 46973,6787 46985,6776 46998,6757 47010,6733 47022,6705 47035,6676 47047,6646 47059,6618 47072,6593 47084,6573 47096,6560 47109,6556 47121,6561 47133,6579 47146,6610 47158,6657 47170,6717 47183,6789 47195,6873 47207,6966 47220,7067 47232,7174 47244,7286 47257,7401 47269,7518 47281,7635 47294,7751 47306,7864 47318,7973 47331,8076 47343,8171 47355,8258 47368,8334 47380,8399 47392,8450 47405,8486 47417,8509 47429,8518 47442,8515 47454,8500 47466,8475 47479,8441 47491,8398 47503,8347 47516,8289 47528,8225 47540,8156 47553,8083 47565,8007 47577,7928 47590,7848 47602,7767 47614,7687 47627,7607 47639,7530 47651,7456 47664,7384 47676,7316 47688,7251 47701,7188 47713,7129 47725,7072 47738,7019 47750,6968 47762,6921 47775,6877 47787,6835 47799,6797 47812,6761 47824,6728 47836,6699 47849,6672 47861,6649 47873,6628 47886,6610 47898,6595 47910,6583 47923,6574 47935,6567 47947,6562 47960,6559 47972,6558 47984,6558 48009,6563 48021,6566 48034,6571 48046,6576 48071,6587 48083,6593 48095,6598 48108,6603 48120,6607 48132,6610 48145,6613 48157,6614 48169,6614 48194,6613 48206,6612 48219,6611 48231,6609 48256,6605 48268,6603 48280,6601 48293,6600 48305,6599 48330,6599 48342,6601 48354,6603 48367,6606 48391,6616 48404,6623 48416,6633 48428,6645 48441,6660 48453,6678 48465,6701 48478,6727 48490,6758 48502,6794 48515,6836 48527,6884 48539,6938 48552,6999 48564,7067 48576,7143 48589,7226 48601,7318 48613,7420 48626,7530 48638,7650 48650,7778 48663,7911 48675,8050 48687,8190 48700,8332 48712,8472 48724,8609 48737,8742 48749,8868 48761,8985 48774,9093 48786,9188 48798,9270 48811,9336 48823,9384 48835,9413 48848,9422 48860,9407 48872,9368 48885,9302 48897,9213 48909,9103 48922,8975 48934,8831 48946,8673 48959,8506 48971,8330 48983,8150 48996,7968 49008,7785 49020,7607 49033,7433 49045,7269 49057,7115 49070,6976 49082,6853 49094,6749 49107,6667 49119,6610 49131,6580 49144,6575 49156,6593 49168,6632 49181,6690 49193,6765 49205,6856 49218,6959 49230,7073 49242,7195 49255,7325 49267,7459 49279,7596 49292,7733 49304,7868 49316,8000 49329,8126 49341,8245 49353,8353 49366,8450 49378,8533 49390,8603 49403,8660 49415,8706 49427,8740 49440,8765 49452,8780 49477,8784 49489,8775 49501,8759 49514,8738 49526,8712 49538,8681 49551,8647 49563,8610 49575,8571 49588,8531 49600,8490 49612,8450 49625,8410 49637,8371 49649,8333 49662,8294 49674,8256 49686,8218 49699,8179 49711,8140 49723,8099 49736,8058 49748,8015 49760,7971 49773,7924 49785,7876 49797,7825 49810,7772 49822,7716 49834,7658 49847,7596 49859,7530 49871,7461 49884,7388 49896,7312 49908,7233 49921,7151 49933,7066 49945,6979 49958,6889 49970,6797 49982,6703 49995,6607 50007,6510 50019,6411 50032,6311 50044,6209 50056,6107 50069,6004 50081,5901 50093,5797 50106,5692"/>
</svg>